G04 #@! TF.GenerationSoftware,KiCad,Pcbnew,9.0.6*
G04 #@! TF.CreationDate,2025-12-06T20:31:00+01:00*
G04 #@! TF.ProjectId,TeStConfAlkolhol,54655374-436f-46e6-9641-6c6b6f6c686f,rev?*
G04 #@! TF.SameCoordinates,Original*
G04 #@! TF.FileFunction,Copper,L1,Top*
G04 #@! TF.FilePolarity,Positive*
%FSLAX46Y46*%
G04 Gerber Fmt 4.6, Leading zero omitted, Abs format (unit mm)*
G04 Created by KiCad (PCBNEW 9.0.6) date 2025-12-06 20:31:00*
%MOMM*%
%LPD*%
G01*
G04 APERTURE LIST*
G04 Aperture macros list*
%AMRoundRect*
0 Rectangle with rounded corners*
0 $1 Rounding radius*
0 $2 $3 $4 $5 $6 $7 $8 $9 X,Y pos of 4 corners*
0 Add a 4 corners polygon primitive as box body*
4,1,4,$2,$3,$4,$5,$6,$7,$8,$9,$2,$3,0*
0 Add four circle primitives for the rounded corners*
1,1,$1+$1,$2,$3*
1,1,$1+$1,$4,$5*
1,1,$1+$1,$6,$7*
1,1,$1+$1,$8,$9*
0 Add four rect primitives between the rounded corners*
20,1,$1+$1,$2,$3,$4,$5,0*
20,1,$1+$1,$4,$5,$6,$7,0*
20,1,$1+$1,$6,$7,$8,$9,0*
20,1,$1+$1,$8,$9,$2,$3,0*%
G04 Aperture macros list end*
G04 #@! TA.AperFunction,ComponentPad*
%ADD10R,1.700000X1.700000*%
G04 #@! TD*
G04 #@! TA.AperFunction,ComponentPad*
%ADD11C,1.700000*%
G04 #@! TD*
G04 #@! TA.AperFunction,ComponentPad*
%ADD12RoundRect,0.250000X-0.550000X-0.550000X0.550000X-0.550000X0.550000X0.550000X-0.550000X0.550000X0*%
G04 #@! TD*
G04 #@! TA.AperFunction,ComponentPad*
%ADD13C,1.600000*%
G04 #@! TD*
G04 #@! TA.AperFunction,ComponentPad*
%ADD14C,1.400000*%
G04 #@! TD*
G04 #@! TA.AperFunction,ViaPad*
%ADD15C,0.600000*%
G04 #@! TD*
G04 #@! TA.AperFunction,Conductor*
%ADD16C,0.200000*%
G04 #@! TD*
G04 #@! TA.AperFunction,Conductor*
%ADD17C,0.500000*%
G04 #@! TD*
G04 APERTURE END LIST*
D10*
G04 #@! TO.P,J4,1,Pin_1*
G04 #@! TO.N,/A1*
X79290000Y-34630000D03*
D11*
G04 #@! TO.P,J4,2,Pin_2*
G04 #@! TO.N,GND*
X76750000Y-34630000D03*
G04 #@! TO.P,J4,3,Pin_3*
G04 #@! TO.N,/A2*
X79290000Y-37170000D03*
G04 #@! TO.P,J4,4,Pin_4*
G04 #@! TO.N,GND*
X76750000Y-37170000D03*
G04 #@! TO.P,J4,5,Pin_5*
G04 #@! TO.N,/A3*
X79290000Y-39710000D03*
G04 #@! TO.P,J4,6,Pin_6*
G04 #@! TO.N,GND*
X76750000Y-39710000D03*
G04 #@! TO.P,J4,7,Pin_7*
G04 #@! TO.N,/A4*
X79290000Y-42250000D03*
G04 #@! TO.P,J4,8,Pin_8*
G04 #@! TO.N,GND*
X76750000Y-42250000D03*
G04 #@! TO.P,J4,9,Pin_9*
G04 #@! TO.N,/A5*
X79290000Y-44790000D03*
G04 #@! TO.P,J4,10,Pin_10*
G04 #@! TO.N,GND*
X76750000Y-44790000D03*
G04 #@! TO.P,J4,11,Pin_11*
G04 #@! TO.N,/A6*
X79290000Y-47330000D03*
G04 #@! TO.P,J4,12,Pin_12*
G04 #@! TO.N,GND*
X76750000Y-47330000D03*
G04 #@! TO.P,J4,13,Pin_13*
G04 #@! TO.N,/A7*
X79290000Y-49870000D03*
G04 #@! TO.P,J4,14,Pin_14*
G04 #@! TO.N,GND*
X76750000Y-49870000D03*
G04 #@! TD*
D10*
G04 #@! TO.P,J2,1,Pin_1*
G04 #@! TO.N,+3V3*
X104460000Y-31840000D03*
D11*
G04 #@! TO.P,J2,2,Pin_2*
G04 #@! TO.N,+5V*
X107000000Y-31840000D03*
G04 #@! TO.P,J2,3,Pin_3*
G04 #@! TO.N,unconnected-(J2-Pin_3-Pad3)*
X104460000Y-34380000D03*
G04 #@! TO.P,J2,4,Pin_4*
G04 #@! TO.N,unconnected-(J2-Pin_4-Pad4)*
X107000000Y-34380000D03*
G04 #@! TO.P,J2,5,Pin_5*
G04 #@! TO.N,unconnected-(J2-Pin_5-Pad5)*
X104460000Y-36920000D03*
G04 #@! TO.P,J2,6,Pin_6*
G04 #@! TO.N,GND*
X107000000Y-36920000D03*
G04 #@! TO.P,J2,7,Pin_7*
G04 #@! TO.N,unconnected-(J2-Pin_7-Pad7)*
X104460000Y-39460000D03*
G04 #@! TO.P,J2,8,Pin_8*
G04 #@! TO.N,unconnected-(J2-Pin_8-Pad8)*
X107000000Y-39460000D03*
G04 #@! TO.P,J2,9,Pin_9*
G04 #@! TO.N,unconnected-(J2-Pin_9-Pad9)*
X104460000Y-42000000D03*
G04 #@! TO.P,J2,10,Pin_10*
G04 #@! TO.N,unconnected-(J2-Pin_10-Pad10)*
X107000000Y-42000000D03*
G04 #@! TO.P,J2,11,Pin_11*
G04 #@! TO.N,/DO*
X104460000Y-44540000D03*
G04 #@! TO.P,J2,12,Pin_12*
G04 #@! TO.N,unconnected-(J2-Pin_12-Pad12)*
X107000000Y-44540000D03*
G04 #@! TO.P,J2,13,Pin_13*
G04 #@! TO.N,unconnected-(J2-Pin_13-Pad13)*
X104460000Y-47080000D03*
G04 #@! TO.P,J2,14,Pin_14*
G04 #@! TO.N,unconnected-(J2-Pin_14-Pad14)*
X107000000Y-47080000D03*
G04 #@! TO.P,J2,15,Pin_15*
G04 #@! TO.N,unconnected-(J2-Pin_15-Pad15)*
X104460000Y-49620000D03*
G04 #@! TO.P,J2,16,Pin_16*
G04 #@! TO.N,unconnected-(J2-Pin_16-Pad16)*
X107000000Y-49620000D03*
G04 #@! TO.P,J2,17,Pin_17*
G04 #@! TO.N,unconnected-(J2-Pin_17-Pad17)*
X104460000Y-52160000D03*
G04 #@! TO.P,J2,18,Pin_18*
G04 #@! TO.N,unconnected-(J2-Pin_18-Pad18)*
X107000000Y-52160000D03*
G04 #@! TO.P,J2,19,Pin_19*
G04 #@! TO.N,Net-(J2-Pin_19)*
X104460000Y-54700000D03*
G04 #@! TO.P,J2,20,Pin_20*
G04 #@! TO.N,unconnected-(J2-Pin_20-Pad20)*
X107000000Y-54700000D03*
G04 #@! TO.P,J2,21,Pin_21*
G04 #@! TO.N,Net-(J2-Pin_21)*
X104460000Y-57240000D03*
G04 #@! TO.P,J2,22,Pin_22*
G04 #@! TO.N,unconnected-(J2-Pin_22-Pad22)*
X107000000Y-57240000D03*
G04 #@! TO.P,J2,23,Pin_23*
G04 #@! TO.N,Net-(J2-Pin_23)*
X104460000Y-59780000D03*
G04 #@! TO.P,J2,24,Pin_24*
G04 #@! TO.N,Net-(J2-Pin_24)*
X107000000Y-59780000D03*
G04 #@! TD*
D10*
G04 #@! TO.P,J1,1,Pin_1*
G04 #@! TO.N,GND*
X87920001Y-54000000D03*
D11*
G04 #@! TO.P,J1,2,Pin_2*
G04 #@! TO.N,+5V*
X90460001Y-54000000D03*
G04 #@! TO.P,J1,3,Pin_3*
G04 #@! TO.N,Net-(J1-Pin_3)*
X93000000Y-54000000D03*
G04 #@! TO.P,J1,4,Pin_4*
G04 #@! TO.N,/ANALOG*
X95540001Y-54000000D03*
G04 #@! TD*
D12*
G04 #@! TO.P,U1,1,CH0*
G04 #@! TO.N,/ANALOG*
X83195000Y-32110000D03*
D13*
G04 #@! TO.P,U1,2,CH1*
G04 #@! TO.N,/A1*
X83195000Y-34650000D03*
G04 #@! TO.P,U1,3,CH2*
G04 #@! TO.N,/A2*
X83195000Y-37190000D03*
G04 #@! TO.P,U1,4,CH3*
G04 #@! TO.N,/A3*
X83195000Y-39730000D03*
G04 #@! TO.P,U1,5,CH4*
G04 #@! TO.N,/A4*
X83195000Y-42270000D03*
G04 #@! TO.P,U1,6,CH5*
G04 #@! TO.N,/A5*
X83195000Y-44810000D03*
G04 #@! TO.P,U1,7,CH6*
G04 #@! TO.N,/A6*
X83195000Y-47350000D03*
G04 #@! TO.P,U1,8,CH7*
G04 #@! TO.N,/A7*
X83195000Y-49890000D03*
G04 #@! TO.P,U1,9,DGND*
G04 #@! TO.N,GND*
X90815000Y-49890000D03*
G04 #@! TO.P,U1,10,~{CS}/SHDN*
G04 #@! TO.N,Net-(J2-Pin_24)*
X90815000Y-47350000D03*
G04 #@! TO.P,U1,11,Din*
G04 #@! TO.N,Net-(J2-Pin_19)*
X90815000Y-44810000D03*
G04 #@! TO.P,U1,12,Dout*
G04 #@! TO.N,Net-(J2-Pin_21)*
X90815000Y-42270000D03*
G04 #@! TO.P,U1,13,CLK*
G04 #@! TO.N,Net-(J2-Pin_23)*
X90815000Y-39730000D03*
G04 #@! TO.P,U1,14,AGND*
G04 #@! TO.N,GND*
X90815000Y-37190000D03*
G04 #@! TO.P,U1,15,Vref*
G04 #@! TO.N,Net-(U1-Vref)*
X90815000Y-34650000D03*
G04 #@! TO.P,U1,16,Vdd*
G04 #@! TO.N,+3V3*
X90815000Y-32110000D03*
G04 #@! TD*
D14*
G04 #@! TO.P,R2,1*
G04 #@! TO.N,GND*
X101500000Y-51540000D03*
G04 #@! TO.P,R2,2*
G04 #@! TO.N,/DO*
X101500000Y-46460001D03*
G04 #@! TD*
G04 #@! TO.P,R1,1*
G04 #@! TO.N,/DO*
X99250000Y-46460000D03*
G04 #@! TO.P,R1,2*
G04 #@! TO.N,Net-(J1-Pin_3)*
X99250000Y-51539999D03*
G04 #@! TD*
D13*
G04 #@! TO.P,L1,1,1*
G04 #@! TO.N,+3V3*
X101000000Y-37460000D03*
G04 #@! TO.P,L1,2,2*
G04 #@! TO.N,Net-(U1-Vref)*
X101000000Y-40000000D03*
G04 #@! TD*
G04 #@! TO.P,C6,1*
G04 #@! TO.N,GND*
X96500000Y-50000000D03*
G04 #@! TO.P,C6,2*
G04 #@! TO.N,+5V*
X94000000Y-50000000D03*
G04 #@! TD*
G04 #@! TO.P,C5,1*
G04 #@! TO.N,GND*
X76500000Y-31250000D03*
G04 #@! TO.P,C5,2*
G04 #@! TO.N,/ANALOG*
X79000000Y-31250000D03*
G04 #@! TD*
G04 #@! TO.P,C4,1*
G04 #@! TO.N,GND*
X101000000Y-31500000D03*
G04 #@! TO.P,C4,2*
G04 #@! TO.N,+3V3*
X101000000Y-34000000D03*
G04 #@! TD*
G04 #@! TO.P,C3,1*
G04 #@! TO.N,Net-(U1-Vref)*
X94000000Y-35000000D03*
G04 #@! TO.P,C3,2*
G04 #@! TO.N,GND*
X94000000Y-37500000D03*
G04 #@! TD*
G04 #@! TO.P,C2,1*
G04 #@! TO.N,Net-(U1-Vref)*
X97000000Y-37500000D03*
G04 #@! TO.P,C2,2*
G04 #@! TO.N,GND*
X97000000Y-35000000D03*
G04 #@! TD*
G04 #@! TO.P,C1,1*
G04 #@! TO.N,Net-(U1-Vref)*
X97000000Y-40500000D03*
G04 #@! TO.P,C1,2*
G04 #@! TO.N,GND*
X97000000Y-43000000D03*
G04 #@! TD*
D15*
G04 #@! TO.N,GND*
X97750000Y-53750000D03*
X99750000Y-53750000D03*
G04 #@! TD*
D16*
G04 #@! TO.N,Net-(J2-Pin_23)*
X103101000Y-53168100D02*
X103101000Y-58421000D01*
X101085372Y-52541000D02*
X102473900Y-52541000D01*
X100499000Y-51954628D02*
X101085372Y-52541000D01*
X100499000Y-49999000D02*
X100499000Y-51954628D01*
X99203000Y-48703000D02*
X100499000Y-49999000D01*
X102473900Y-52541000D02*
X103101000Y-53168100D01*
X91329150Y-51500000D02*
X92500000Y-50329150D01*
X93297000Y-48703000D02*
X99203000Y-48703000D01*
X103101000Y-58421000D02*
X104460000Y-59780000D01*
X89750000Y-51500000D02*
X91329150Y-51500000D01*
X88500000Y-42045000D02*
X88500000Y-50250000D01*
X92500000Y-50329150D02*
X92500000Y-49500000D01*
X92500000Y-49500000D02*
X93297000Y-48703000D01*
X90815000Y-39730000D02*
X88500000Y-42045000D01*
X88500000Y-50250000D02*
X89750000Y-51500000D01*
G04 #@! TO.N,Net-(J2-Pin_19)*
X92000000Y-43625000D02*
X90815000Y-44810000D01*
X92000000Y-41500000D02*
X92000000Y-43625000D01*
X91556050Y-41056050D02*
X92000000Y-41500000D01*
X90056050Y-41056050D02*
X91556050Y-41056050D01*
X89000000Y-50000000D02*
X89000000Y-42112100D01*
X89991000Y-50991000D02*
X89000000Y-50000000D01*
X91271050Y-50991000D02*
X89991000Y-50991000D01*
X100234900Y-48302000D02*
X92948000Y-48302000D01*
X102500000Y-50567100D02*
X100234900Y-48302000D01*
X91916000Y-49334000D02*
X91916000Y-50346050D01*
X91916000Y-50346050D02*
X91271050Y-50991000D01*
X102500000Y-52000000D02*
X102500000Y-50567100D01*
X104460000Y-53960000D02*
X102500000Y-52000000D01*
X92948000Y-48302000D02*
X91916000Y-49334000D01*
X104460000Y-54700000D02*
X104460000Y-53960000D01*
X89000000Y-42112100D02*
X90056050Y-41056050D01*
D17*
G04 #@! TO.N,+5V*
X90460001Y-53539999D02*
X94000000Y-50000000D01*
X90460001Y-54000000D02*
X90460001Y-53539999D01*
D16*
G04 #@! TO.N,Net-(J1-Pin_3)*
X98289999Y-52500000D02*
X99250000Y-51539999D01*
X94500000Y-52500000D02*
X98289999Y-52500000D01*
X93000000Y-54000000D02*
X94500000Y-52500000D01*
G04 #@! TO.N,Net-(J2-Pin_21)*
X105611000Y-56089000D02*
X104460000Y-57240000D01*
X105611000Y-51683240D02*
X105611000Y-56089000D01*
X104927760Y-51000000D02*
X105611000Y-51683240D01*
X104000000Y-51000000D02*
X104927760Y-51000000D01*
X100901000Y-47901000D02*
X104000000Y-51000000D01*
X89714000Y-47806050D02*
X90358950Y-48451000D01*
X91271050Y-48451000D02*
X91821050Y-47901000D01*
X89714000Y-43371000D02*
X89714000Y-47806050D01*
X90358950Y-48451000D02*
X91271050Y-48451000D01*
X91821050Y-47901000D02*
X100901000Y-47901000D01*
X90815000Y-42270000D02*
X89714000Y-43371000D01*
G04 #@! TO.N,Net-(J2-Pin_24)*
X90965000Y-47500000D02*
X90815000Y-47350000D01*
X103000000Y-47500000D02*
X90965000Y-47500000D01*
X108399000Y-49391240D02*
X107476760Y-48469000D01*
X107476760Y-48469000D02*
X103969000Y-48469000D01*
X108399000Y-58381000D02*
X108399000Y-49391240D01*
X107000000Y-59780000D02*
X108399000Y-58381000D01*
X103969000Y-48469000D02*
X103000000Y-47500000D01*
G04 #@! TO.N,/A7*
X83175000Y-49870000D02*
X83195000Y-49890000D01*
X79290000Y-49870000D02*
X83175000Y-49870000D01*
G04 #@! TO.N,/A6*
X79310000Y-47350000D02*
X79290000Y-47330000D01*
X83195000Y-47350000D02*
X79310000Y-47350000D01*
G04 #@! TO.N,/A5*
X79310000Y-44810000D02*
X79290000Y-44790000D01*
X83195000Y-44810000D02*
X79310000Y-44810000D01*
G04 #@! TO.N,/A4*
X83195000Y-42270000D02*
X79310000Y-42270000D01*
X79310000Y-42270000D02*
X79290000Y-42250000D01*
G04 #@! TO.N,/A1*
X79310000Y-34650000D02*
X79290000Y-34630000D01*
X83195000Y-34650000D02*
X79310000Y-34650000D01*
G04 #@! TO.N,/A2*
X83195000Y-37190000D02*
X79310000Y-37190000D01*
X79310000Y-37190000D02*
X79290000Y-37170000D01*
G04 #@! TO.N,/A3*
X79310000Y-39730000D02*
X79290000Y-39710000D01*
X83195000Y-39730000D02*
X79310000Y-39730000D01*
G04 #@! TO.N,/DO*
X102539999Y-46460001D02*
X101500000Y-46460001D01*
X104460000Y-44540000D02*
X102539999Y-46460001D01*
X101499999Y-46460000D02*
X101500000Y-46460001D01*
X99250000Y-46460000D02*
X101499999Y-46460000D01*
D17*
G04 #@! TO.N,Net-(U1-Vref)*
X91165000Y-35000000D02*
X90815000Y-34650000D01*
X94000000Y-35000000D02*
X91165000Y-35000000D01*
X97000000Y-37500000D02*
X96500000Y-37500000D01*
X96500000Y-37500000D02*
X94000000Y-35000000D01*
X97000000Y-40500000D02*
X97000000Y-37500000D01*
X100500000Y-40500000D02*
X97000000Y-40500000D01*
X101000000Y-40000000D02*
X100500000Y-40500000D01*
G04 #@! TO.N,+3V3*
X90815000Y-32110000D02*
X99110000Y-32110000D01*
X99110000Y-32110000D02*
X101000000Y-34000000D01*
X101000000Y-34000000D02*
X101000000Y-37460000D01*
X103160000Y-31840000D02*
X101000000Y-34000000D01*
X104460000Y-31840000D02*
X103160000Y-31840000D01*
G04 #@! TD*
G04 #@! TA.AperFunction,Conductor*
G04 #@! TO.N,GND*
G36*
X100188809Y-51989087D02*
G01*
X100206689Y-52024754D01*
X100218978Y-52070616D01*
X100218980Y-52070620D01*
X100245174Y-52115989D01*
X100258540Y-52139139D01*
X100844912Y-52725511D01*
X100844911Y-52725511D01*
X100900861Y-52781460D01*
X100969379Y-52821019D01*
X100969383Y-52821021D01*
X101045807Y-52841499D01*
X101045809Y-52841500D01*
X101045810Y-52841500D01*
X101124934Y-52841500D01*
X102308421Y-52841500D01*
X102366612Y-52860407D01*
X102378425Y-52870496D01*
X102771504Y-53263575D01*
X102799281Y-53318092D01*
X102800500Y-53333579D01*
X102800500Y-54933343D01*
X102781593Y-54991534D01*
X102732093Y-55027498D01*
X102675878Y-55028970D01*
X102591718Y-55006420D01*
X102565892Y-54999500D01*
X102565891Y-54999500D01*
X96261354Y-54999500D01*
X96203163Y-54980593D01*
X96167199Y-54931093D01*
X96167199Y-54869907D01*
X96203163Y-54820407D01*
X96206353Y-54818184D01*
X96206455Y-54818115D01*
X96209656Y-54815977D01*
X96355978Y-54669655D01*
X96470942Y-54497598D01*
X96550131Y-54306420D01*
X96590501Y-54103465D01*
X96590501Y-53896535D01*
X96550131Y-53693580D01*
X96470942Y-53502402D01*
X96355978Y-53330345D01*
X96209656Y-53184023D01*
X96188864Y-53170130D01*
X96037598Y-53069058D01*
X95884903Y-53005810D01*
X95849059Y-52990963D01*
X95802536Y-52951227D01*
X95788252Y-52891733D01*
X95811667Y-52835205D01*
X95863836Y-52803235D01*
X95886947Y-52800500D01*
X98329562Y-52800500D01*
X98329562Y-52800499D01*
X98405988Y-52780021D01*
X98474510Y-52740460D01*
X98502484Y-52712485D01*
X98530460Y-52684511D01*
X98748549Y-52466420D01*
X98814513Y-52400455D01*
X98869027Y-52372679D01*
X98922396Y-52378995D01*
X98987334Y-52405893D01*
X99161309Y-52440499D01*
X99161310Y-52440499D01*
X99338690Y-52440499D01*
X99338691Y-52440499D01*
X99512666Y-52405893D01*
X99676547Y-52338012D01*
X99824035Y-52239463D01*
X99949464Y-52114034D01*
X100028750Y-51995374D01*
X100076797Y-51957497D01*
X100137935Y-51955095D01*
X100188809Y-51989087D01*
G37*
G04 #@! TD.AperFunction*
G04 #@! TA.AperFunction,Conductor*
G36*
X108458691Y-30019407D02*
G01*
X108494655Y-30068907D01*
X108499500Y-30099500D01*
X108499500Y-48827761D01*
X108480593Y-48885952D01*
X108431093Y-48921916D01*
X108369907Y-48921916D01*
X108330496Y-48897765D01*
X108035231Y-48602500D01*
X107661271Y-48228540D01*
X107661268Y-48228538D01*
X107592752Y-48188980D01*
X107592748Y-48188978D01*
X107545699Y-48176371D01*
X107494385Y-48143047D01*
X107472459Y-48085925D01*
X107488295Y-48026825D01*
X107516318Y-47998432D01*
X107669655Y-47895977D01*
X107815977Y-47749655D01*
X107930941Y-47577598D01*
X108010130Y-47386420D01*
X108050500Y-47183465D01*
X108050500Y-46976535D01*
X108010130Y-46773580D01*
X107930941Y-46582402D01*
X107815977Y-46410345D01*
X107669655Y-46264023D01*
X107669651Y-46264020D01*
X107497597Y-46149058D01*
X107306418Y-46069869D01*
X107103467Y-46029500D01*
X107103465Y-46029500D01*
X106896535Y-46029500D01*
X106896532Y-46029500D01*
X106693581Y-46069869D01*
X106502402Y-46149058D01*
X106330348Y-46264020D01*
X106184020Y-46410348D01*
X106069058Y-46582402D01*
X105989869Y-46773581D01*
X105949500Y-46976532D01*
X105949500Y-47183467D01*
X105989869Y-47386418D01*
X106069058Y-47577597D01*
X106170956Y-47730099D01*
X106184023Y-47749655D01*
X106330345Y-47895977D01*
X106330348Y-47895979D01*
X106466847Y-47987184D01*
X106504727Y-48035234D01*
X106507129Y-48096372D01*
X106473137Y-48147246D01*
X106415733Y-48168424D01*
X106411846Y-48168500D01*
X105048154Y-48168500D01*
X104989963Y-48149593D01*
X104953999Y-48100093D01*
X104953999Y-48038907D01*
X104989963Y-47989407D01*
X104993153Y-47987184D01*
X105019613Y-47969504D01*
X105129655Y-47895977D01*
X105275977Y-47749655D01*
X105390941Y-47577598D01*
X105470130Y-47386420D01*
X105510500Y-47183465D01*
X105510500Y-46976535D01*
X105470130Y-46773580D01*
X105390941Y-46582402D01*
X105275977Y-46410345D01*
X105129655Y-46264023D01*
X105129651Y-46264020D01*
X104957597Y-46149058D01*
X104766418Y-46069869D01*
X104563467Y-46029500D01*
X104563465Y-46029500D01*
X104356535Y-46029500D01*
X104356532Y-46029500D01*
X104153581Y-46069869D01*
X103962402Y-46149058D01*
X103790348Y-46264020D01*
X103644020Y-46410348D01*
X103529058Y-46582402D01*
X103449869Y-46773581D01*
X103409500Y-46976532D01*
X103409500Y-47183468D01*
X103420585Y-47239195D01*
X103413393Y-47299957D01*
X103371860Y-47344886D01*
X103311850Y-47356823D01*
X103256285Y-47331207D01*
X103253508Y-47328537D01*
X103184511Y-47259540D01*
X103181866Y-47258013D01*
X103181862Y-47258010D01*
X103115987Y-47219978D01*
X103039564Y-47199500D01*
X103039562Y-47199500D01*
X102272990Y-47199500D01*
X102214799Y-47180593D01*
X102178835Y-47131093D01*
X102178835Y-47069907D01*
X102196458Y-47037700D01*
X102199462Y-47034038D01*
X102199464Y-47034036D01*
X102298013Y-46886548D01*
X102320343Y-46832639D01*
X102324909Y-46821616D01*
X102364645Y-46775090D01*
X102416373Y-46760501D01*
X102579562Y-46760501D01*
X102579562Y-46760500D01*
X102655988Y-46740022D01*
X102724510Y-46700461D01*
X102780459Y-46644512D01*
X102780460Y-46644511D01*
X103909708Y-45515261D01*
X103964223Y-45487486D01*
X104017595Y-45493802D01*
X104153580Y-45550130D01*
X104356535Y-45590500D01*
X104356536Y-45590500D01*
X104563464Y-45590500D01*
X104563465Y-45590500D01*
X104766420Y-45550130D01*
X104957598Y-45470941D01*
X105129655Y-45355977D01*
X105275977Y-45209655D01*
X105390941Y-45037598D01*
X105470130Y-44846420D01*
X105510500Y-44643465D01*
X105510500Y-44436535D01*
X105510499Y-44436532D01*
X105949500Y-44436532D01*
X105949500Y-44643467D01*
X105989869Y-44846418D01*
X106069058Y-45037597D01*
X106170956Y-45190099D01*
X106184023Y-45209655D01*
X106330345Y-45355977D01*
X106502402Y-45470941D01*
X106693580Y-45550130D01*
X106896535Y-45590500D01*
X106896536Y-45590500D01*
X107103464Y-45590500D01*
X107103465Y-45590500D01*
X107306420Y-45550130D01*
X107497598Y-45470941D01*
X107669655Y-45355977D01*
X107815977Y-45209655D01*
X107930941Y-45037598D01*
X108010130Y-44846420D01*
X108050500Y-44643465D01*
X108050500Y-44436535D01*
X108010130Y-44233580D01*
X107930941Y-44042402D01*
X107815977Y-43870345D01*
X107669655Y-43724023D01*
X107580665Y-43664562D01*
X107497597Y-43609058D01*
X107306418Y-43529869D01*
X107103467Y-43489500D01*
X107103465Y-43489500D01*
X106896535Y-43489500D01*
X106896532Y-43489500D01*
X106693581Y-43529869D01*
X106502402Y-43609058D01*
X106330348Y-43724020D01*
X106184020Y-43870348D01*
X106069058Y-44042402D01*
X105989869Y-44233581D01*
X105949500Y-44436532D01*
X105510499Y-44436532D01*
X105470130Y-44233580D01*
X105390941Y-44042402D01*
X105275977Y-43870345D01*
X105129655Y-43724023D01*
X105040665Y-43664562D01*
X104957597Y-43609058D01*
X104766418Y-43529869D01*
X104563467Y-43489500D01*
X104563465Y-43489500D01*
X104356535Y-43489500D01*
X104356532Y-43489500D01*
X104153581Y-43529869D01*
X103962402Y-43609058D01*
X103790348Y-43724020D01*
X103644020Y-43870348D01*
X103529058Y-44042402D01*
X103449869Y-44233581D01*
X103409500Y-44436532D01*
X103409500Y-44643467D01*
X103449869Y-44846418D01*
X103506196Y-44982402D01*
X103510997Y-45043399D01*
X103484736Y-45090292D01*
X102474118Y-46100910D01*
X102419601Y-46128687D01*
X102359169Y-46119116D01*
X102315904Y-46075851D01*
X102312658Y-46068811D01*
X102298013Y-46033454D01*
X102199464Y-45885966D01*
X102074035Y-45760537D01*
X102074032Y-45760535D01*
X101926544Y-45661986D01*
X101762666Y-45594107D01*
X101588693Y-45559501D01*
X101588691Y-45559501D01*
X101411309Y-45559501D01*
X101411306Y-45559501D01*
X101237334Y-45594107D01*
X101237332Y-45594107D01*
X101073455Y-45661986D01*
X101073454Y-45661986D01*
X100925965Y-45760536D01*
X100800535Y-45885966D01*
X100701990Y-46033446D01*
X100701984Y-46033458D01*
X100675092Y-46098385D01*
X100635356Y-46144911D01*
X100583628Y-46159500D01*
X100166373Y-46159500D01*
X100108182Y-46140593D01*
X100074909Y-46098385D01*
X100048014Y-46033455D01*
X100048014Y-46033454D01*
X99949464Y-45885965D01*
X99824034Y-45760535D01*
X99676544Y-45661985D01*
X99512666Y-45594106D01*
X99338693Y-45559500D01*
X99338691Y-45559500D01*
X99161309Y-45559500D01*
X99161306Y-45559500D01*
X98987334Y-45594106D01*
X98987332Y-45594106D01*
X98823455Y-45661985D01*
X98823454Y-45661985D01*
X98675965Y-45760535D01*
X98550535Y-45885965D01*
X98451985Y-46033454D01*
X98451985Y-46033455D01*
X98384106Y-46197332D01*
X98384106Y-46197334D01*
X98349500Y-46371306D01*
X98349500Y-46548693D01*
X98384106Y-46722665D01*
X98384106Y-46722667D01*
X98451985Y-46886544D01*
X98451985Y-46886545D01*
X98550538Y-47034038D01*
X98553542Y-47037699D01*
X98575840Y-47094677D01*
X98560388Y-47153879D01*
X98513089Y-47192692D01*
X98477011Y-47199500D01*
X91886412Y-47199500D01*
X91828221Y-47180593D01*
X91792257Y-47131093D01*
X91789314Y-47119815D01*
X91784314Y-47094678D01*
X91777051Y-47058165D01*
X91701632Y-46876086D01*
X91592139Y-46712218D01*
X91452782Y-46572861D01*
X91288914Y-46463368D01*
X91288915Y-46463368D01*
X91288913Y-46463367D01*
X91106835Y-46387949D01*
X90913543Y-46349500D01*
X90913541Y-46349500D01*
X90716459Y-46349500D01*
X90716456Y-46349500D01*
X90523165Y-46387949D01*
X90523163Y-46387949D01*
X90341086Y-46463367D01*
X90177212Y-46572865D01*
X90176295Y-46573618D01*
X90175790Y-46573815D01*
X90173175Y-46575563D01*
X90172791Y-46574988D01*
X90119315Y-46595911D01*
X90060114Y-46580454D01*
X90021305Y-46533152D01*
X90014500Y-46497082D01*
X90014500Y-45662917D01*
X90033407Y-45604726D01*
X90082907Y-45568762D01*
X90144093Y-45568762D01*
X90173057Y-45584612D01*
X90173175Y-45584437D01*
X90175152Y-45585758D01*
X90176305Y-45586389D01*
X90177213Y-45587134D01*
X90177218Y-45587139D01*
X90341086Y-45696632D01*
X90523165Y-45772051D01*
X90716459Y-45810500D01*
X90716460Y-45810500D01*
X90913540Y-45810500D01*
X90913541Y-45810500D01*
X91106835Y-45772051D01*
X91288914Y-45696632D01*
X91452782Y-45587139D01*
X91592139Y-45447782D01*
X91701632Y-45283914D01*
X91777051Y-45101835D01*
X91815500Y-44908541D01*
X91815500Y-44711459D01*
X91777051Y-44518165D01*
X91730533Y-44405862D01*
X91725733Y-44344868D01*
X91751992Y-44297977D01*
X92240460Y-43809511D01*
X92257573Y-43779870D01*
X92280021Y-43740989D01*
X92300500Y-43664562D01*
X92300500Y-42901506D01*
X96000000Y-42901506D01*
X96000000Y-43098493D01*
X96038429Y-43291688D01*
X96038429Y-43291690D01*
X96113809Y-43473675D01*
X96113812Y-43473681D01*
X96222392Y-43636182D01*
X96655414Y-43203160D01*
X96679920Y-43245606D01*
X96754394Y-43320080D01*
X96796836Y-43344584D01*
X96363816Y-43777605D01*
X96526324Y-43886190D01*
X96708310Y-43961570D01*
X96901506Y-43999999D01*
X96901510Y-44000000D01*
X97098490Y-44000000D01*
X97098493Y-43999999D01*
X97291688Y-43961570D01*
X97291690Y-43961570D01*
X97473675Y-43886190D01*
X97636182Y-43777605D01*
X97203161Y-43344584D01*
X97245606Y-43320080D01*
X97320080Y-43245606D01*
X97344584Y-43203161D01*
X97777605Y-43636182D01*
X97886190Y-43473675D01*
X97961570Y-43291690D01*
X97961570Y-43291688D01*
X97999999Y-43098493D01*
X98000000Y-43098490D01*
X98000000Y-42901509D01*
X97999999Y-42901506D01*
X97961570Y-42708311D01*
X97961570Y-42708309D01*
X97886190Y-42526324D01*
X97777605Y-42363816D01*
X97344584Y-42796836D01*
X97320080Y-42754394D01*
X97245606Y-42679920D01*
X97203160Y-42655414D01*
X97636183Y-42222392D01*
X97473681Y-42113812D01*
X97473675Y-42113809D01*
X97291689Y-42038429D01*
X97098493Y-42000000D01*
X96901506Y-42000000D01*
X96708311Y-42038429D01*
X96708309Y-42038429D01*
X96526326Y-42113808D01*
X96526314Y-42113814D01*
X96363816Y-42222393D01*
X96796838Y-42655415D01*
X96754394Y-42679920D01*
X96679920Y-42754394D01*
X96655415Y-42796838D01*
X96222393Y-42363816D01*
X96113814Y-42526314D01*
X96113808Y-42526326D01*
X96038429Y-42708309D01*
X96038429Y-42708311D01*
X96000000Y-42901506D01*
X92300500Y-42901506D01*
X92300500Y-41896532D01*
X103409500Y-41896532D01*
X103409500Y-42103467D01*
X103449869Y-42306418D01*
X103529058Y-42497597D01*
X103630956Y-42650099D01*
X103644023Y-42669655D01*
X103790345Y-42815977D01*
X103962402Y-42930941D01*
X104153580Y-43010130D01*
X104356535Y-43050500D01*
X104356536Y-43050500D01*
X104563464Y-43050500D01*
X104563465Y-43050500D01*
X104766420Y-43010130D01*
X104957598Y-42930941D01*
X105129655Y-42815977D01*
X105275977Y-42669655D01*
X105390941Y-42497598D01*
X105470130Y-42306420D01*
X105510500Y-42103465D01*
X105510500Y-41896535D01*
X105510499Y-41896532D01*
X105949500Y-41896532D01*
X105949500Y-42103467D01*
X105989869Y-42306418D01*
X106069058Y-42497597D01*
X106170956Y-42650099D01*
X106184023Y-42669655D01*
X106330345Y-42815977D01*
X106502402Y-42930941D01*
X106693580Y-43010130D01*
X106896535Y-43050500D01*
X106896536Y-43050500D01*
X107103464Y-43050500D01*
X107103465Y-43050500D01*
X107306420Y-43010130D01*
X107497598Y-42930941D01*
X107669655Y-42815977D01*
X107815977Y-42669655D01*
X107930941Y-42497598D01*
X108010130Y-42306420D01*
X108050500Y-42103465D01*
X108050500Y-41896535D01*
X108010130Y-41693580D01*
X107930941Y-41502402D01*
X107815977Y-41330345D01*
X107669655Y-41184023D01*
X107669651Y-41184020D01*
X107497597Y-41069058D01*
X107306418Y-40989869D01*
X107103467Y-40949500D01*
X107103465Y-40949500D01*
X106896535Y-40949500D01*
X106896532Y-40949500D01*
X106693581Y-40989869D01*
X106502402Y-41069058D01*
X106330348Y-41184020D01*
X106184020Y-41330348D01*
X106069058Y-41502402D01*
X105989869Y-41693581D01*
X105949500Y-41896532D01*
X105510499Y-41896532D01*
X105470130Y-41693580D01*
X105390941Y-41502402D01*
X105275977Y-41330345D01*
X105129655Y-41184023D01*
X105129651Y-41184020D01*
X104957597Y-41069058D01*
X104766418Y-40989869D01*
X104563467Y-40949500D01*
X104563465Y-40949500D01*
X104356535Y-40949500D01*
X104356532Y-40949500D01*
X104153581Y-40989869D01*
X103962402Y-41069058D01*
X103790348Y-41184020D01*
X103644020Y-41330348D01*
X103529058Y-41502402D01*
X103449869Y-41693581D01*
X103409500Y-41896532D01*
X92300500Y-41896532D01*
X92300500Y-41460438D01*
X92280021Y-41384011D01*
X92264166Y-41356550D01*
X92240460Y-41315489D01*
X92184512Y-41259540D01*
X91740560Y-40815589D01*
X91672042Y-40776030D01*
X91672038Y-40776028D01*
X91595614Y-40755550D01*
X91595612Y-40755550D01*
X91407368Y-40755550D01*
X91349177Y-40736643D01*
X91313213Y-40687143D01*
X91313213Y-40625957D01*
X91349177Y-40576457D01*
X91352366Y-40574235D01*
X91364689Y-40566000D01*
X91452782Y-40507139D01*
X91592139Y-40367782D01*
X91701632Y-40203914D01*
X91777051Y-40021835D01*
X91815500Y-39828541D01*
X91815500Y-39631459D01*
X91777051Y-39438165D01*
X91701632Y-39256086D01*
X91592139Y-39092218D01*
X91452782Y-38952861D01*
X91288914Y-38843368D01*
X91288915Y-38843368D01*
X91288913Y-38843367D01*
X91106835Y-38767949D01*
X90913543Y-38729500D01*
X90913541Y-38729500D01*
X90716459Y-38729500D01*
X90716456Y-38729500D01*
X90523165Y-38767949D01*
X90523163Y-38767949D01*
X90341086Y-38843367D01*
X90177218Y-38952861D01*
X90177214Y-38952864D01*
X90037864Y-39092214D01*
X90037861Y-39092218D01*
X89928367Y-39256086D01*
X89852949Y-39438163D01*
X89852949Y-39438165D01*
X89814500Y-39631456D01*
X89814500Y-39828543D01*
X89838759Y-39950500D01*
X89851871Y-40016418D01*
X89852949Y-40021834D01*
X89852949Y-40021836D01*
X89899464Y-40134134D01*
X89904264Y-40195131D01*
X89878004Y-40242023D01*
X88315489Y-41804540D01*
X88315488Y-41804539D01*
X88259539Y-41860489D01*
X88219980Y-41929007D01*
X88219978Y-41929011D01*
X88199500Y-42005435D01*
X88199500Y-50289564D01*
X88219978Y-50365988D01*
X88219979Y-50365990D01*
X88236886Y-50395272D01*
X88236886Y-50395275D01*
X88236887Y-50395275D01*
X88236888Y-50395276D01*
X88259540Y-50434511D01*
X89509540Y-51684511D01*
X89509539Y-51684511D01*
X89565489Y-51740460D01*
X89634007Y-51780019D01*
X89634011Y-51780021D01*
X89710435Y-51800499D01*
X89710437Y-51800500D01*
X91323388Y-51800500D01*
X91381579Y-51819407D01*
X91417543Y-51868907D01*
X91417543Y-51930093D01*
X91393392Y-51969504D01*
X90442393Y-52920504D01*
X90387876Y-52948281D01*
X90372389Y-52949500D01*
X90356533Y-52949500D01*
X90153582Y-52989869D01*
X89962403Y-53069058D01*
X89790349Y-53184020D01*
X89644021Y-53330348D01*
X89529059Y-53502402D01*
X89449870Y-53693581D01*
X89409501Y-53896532D01*
X89409501Y-54103467D01*
X89449870Y-54306418D01*
X89529059Y-54497597D01*
X89529060Y-54497598D01*
X89644024Y-54669655D01*
X89790346Y-54815977D01*
X89790349Y-54815979D01*
X89793649Y-54818184D01*
X89831529Y-54866233D01*
X89833931Y-54927372D01*
X89799939Y-54978246D01*
X89742536Y-54999424D01*
X89738648Y-54999500D01*
X89064814Y-54999500D01*
X89006623Y-54980593D01*
X88970659Y-54931093D01*
X88967716Y-54881186D01*
X88970000Y-54869700D01*
X88970001Y-54869697D01*
X88970001Y-54100001D01*
X88970000Y-54100000D01*
X88410844Y-54100000D01*
X88420001Y-54065826D01*
X88420001Y-53934174D01*
X88410844Y-53900000D01*
X88970000Y-53900000D01*
X88970001Y-53899999D01*
X88970001Y-53130302D01*
X88970000Y-53130299D01*
X88958397Y-53071963D01*
X88914194Y-53005810D01*
X88914190Y-53005806D01*
X88848037Y-52961603D01*
X88789701Y-52950000D01*
X88020002Y-52950000D01*
X88020001Y-52950001D01*
X88020001Y-53509157D01*
X87985827Y-53500000D01*
X87854175Y-53500000D01*
X87820001Y-53509157D01*
X87820001Y-52950001D01*
X87820000Y-52950000D01*
X87050300Y-52950000D01*
X86991964Y-52961603D01*
X86925811Y-53005806D01*
X86925807Y-53005810D01*
X86881604Y-53071963D01*
X86870001Y-53130299D01*
X86870001Y-53899999D01*
X86870002Y-53900000D01*
X87429158Y-53900000D01*
X87420001Y-53934174D01*
X87420001Y-54065826D01*
X87429158Y-54100000D01*
X86870002Y-54100000D01*
X86870001Y-54100001D01*
X86870001Y-54869700D01*
X86872286Y-54881186D01*
X86865094Y-54941947D01*
X86823562Y-54986877D01*
X86775188Y-54999500D01*
X75599500Y-54999500D01*
X75541309Y-54980593D01*
X75505345Y-54931093D01*
X75500500Y-54900500D01*
X75500500Y-49766581D01*
X75700000Y-49766581D01*
X75700000Y-49973418D01*
X75740349Y-50176272D01*
X75819501Y-50367360D01*
X75819508Y-50367374D01*
X75934405Y-50539329D01*
X75936826Y-50541750D01*
X76332210Y-50146365D01*
X76349901Y-50177007D01*
X76442993Y-50270099D01*
X76473632Y-50287788D01*
X76078249Y-50683173D01*
X76080670Y-50685594D01*
X76252625Y-50800491D01*
X76252639Y-50800498D01*
X76443727Y-50879650D01*
X76646581Y-50919999D01*
X76646586Y-50920000D01*
X76853414Y-50920000D01*
X76853418Y-50919999D01*
X77056272Y-50879650D01*
X77247360Y-50800498D01*
X77247366Y-50800495D01*
X77419333Y-50685591D01*
X77421750Y-50683173D01*
X77026366Y-50287789D01*
X77057007Y-50270099D01*
X77150099Y-50177007D01*
X77167789Y-50146366D01*
X77563173Y-50541750D01*
X77565591Y-50539333D01*
X77680495Y-50367366D01*
X77680498Y-50367360D01*
X77759650Y-50176272D01*
X77799999Y-49973418D01*
X77800000Y-49973413D01*
X77800000Y-49766585D01*
X77799999Y-49766582D01*
X77799989Y-49766532D01*
X78239500Y-49766532D01*
X78239500Y-49973467D01*
X78279869Y-50176418D01*
X78359058Y-50367597D01*
X78470062Y-50533727D01*
X78474023Y-50539655D01*
X78620345Y-50685977D01*
X78792402Y-50800941D01*
X78983580Y-50880130D01*
X79186535Y-50920500D01*
X79186536Y-50920500D01*
X79393464Y-50920500D01*
X79393465Y-50920500D01*
X79596420Y-50880130D01*
X79787598Y-50800941D01*
X79959655Y-50685977D01*
X80105977Y-50539655D01*
X80220941Y-50367598D01*
X80262382Y-50267552D01*
X80277268Y-50231614D01*
X80317005Y-50185088D01*
X80368732Y-50170500D01*
X82162104Y-50170500D01*
X82220295Y-50189407D01*
X82253568Y-50231615D01*
X82305450Y-50356869D01*
X82308368Y-50363914D01*
X82417861Y-50527782D01*
X82557218Y-50667139D01*
X82721086Y-50776632D01*
X82903165Y-50852051D01*
X83096459Y-50890500D01*
X83096460Y-50890500D01*
X83293540Y-50890500D01*
X83293541Y-50890500D01*
X83486835Y-50852051D01*
X83668914Y-50776632D01*
X83832782Y-50667139D01*
X83972139Y-50527782D01*
X84081632Y-50363914D01*
X84157051Y-50181835D01*
X84195500Y-49988541D01*
X84195500Y-49791459D01*
X84157051Y-49598165D01*
X84081632Y-49416086D01*
X83972139Y-49252218D01*
X83832782Y-49112861D01*
X83712507Y-49032496D01*
X83668913Y-49003367D01*
X83486835Y-48927949D01*
X83293543Y-48889500D01*
X83293541Y-48889500D01*
X83096459Y-48889500D01*
X83096456Y-48889500D01*
X82903165Y-48927949D01*
X82903163Y-48927949D01*
X82721086Y-49003367D01*
X82557218Y-49112861D01*
X82557214Y-49112864D01*
X82417864Y-49252214D01*
X82417861Y-49252218D01*
X82308371Y-49416078D01*
X82308367Y-49416087D01*
X82270136Y-49508386D01*
X82230399Y-49554911D01*
X82178672Y-49569500D01*
X80368732Y-49569500D01*
X80310541Y-49550593D01*
X80277268Y-49508386D01*
X80220941Y-49372402D01*
X80105979Y-49200348D01*
X80105977Y-49200345D01*
X79959655Y-49054023D01*
X79959651Y-49054020D01*
X79787597Y-48939058D01*
X79596418Y-48859869D01*
X79393467Y-48819500D01*
X79393465Y-48819500D01*
X79186535Y-48819500D01*
X79186532Y-48819500D01*
X78983581Y-48859869D01*
X78792402Y-48939058D01*
X78620348Y-49054020D01*
X78474020Y-49200348D01*
X78359058Y-49372402D01*
X78279869Y-49563581D01*
X78239500Y-49766532D01*
X77799989Y-49766532D01*
X77759650Y-49563727D01*
X77680498Y-49372639D01*
X77680491Y-49372625D01*
X77565594Y-49200670D01*
X77563173Y-49198249D01*
X77167788Y-49593632D01*
X77150099Y-49562993D01*
X77057007Y-49469901D01*
X77026365Y-49452210D01*
X77421750Y-49056826D01*
X77419329Y-49054405D01*
X77247374Y-48939508D01*
X77247360Y-48939501D01*
X77056272Y-48860349D01*
X76853418Y-48820000D01*
X76646581Y-48820000D01*
X76443727Y-48860349D01*
X76252639Y-48939501D01*
X76252630Y-48939505D01*
X76080665Y-49054410D01*
X76078248Y-49056825D01*
X76473633Y-49452210D01*
X76442993Y-49469901D01*
X76349901Y-49562993D01*
X76332210Y-49593633D01*
X75936825Y-49198248D01*
X75934410Y-49200665D01*
X75819505Y-49372630D01*
X75819501Y-49372639D01*
X75740349Y-49563727D01*
X75700000Y-49766581D01*
X75500500Y-49766581D01*
X75500500Y-47226581D01*
X75700000Y-47226581D01*
X75700000Y-47433418D01*
X75740349Y-47636272D01*
X75819501Y-47827360D01*
X75819508Y-47827374D01*
X75934405Y-47999329D01*
X75936826Y-48001750D01*
X76332210Y-47606365D01*
X76349901Y-47637007D01*
X76442993Y-47730099D01*
X76473632Y-47747788D01*
X76078249Y-48143173D01*
X76080670Y-48145594D01*
X76252625Y-48260491D01*
X76252639Y-48260498D01*
X76443727Y-48339650D01*
X76646581Y-48379999D01*
X76646586Y-48380000D01*
X76853414Y-48380000D01*
X76853418Y-48379999D01*
X77056272Y-48339650D01*
X77247360Y-48260498D01*
X77247366Y-48260495D01*
X77419333Y-48145591D01*
X77421750Y-48143173D01*
X77026366Y-47747789D01*
X77057007Y-47730099D01*
X77150099Y-47637007D01*
X77167789Y-47606366D01*
X77563173Y-48001750D01*
X77565591Y-47999333D01*
X77680495Y-47827366D01*
X77680498Y-47827360D01*
X77759650Y-47636272D01*
X77799999Y-47433418D01*
X77800000Y-47433413D01*
X77800000Y-47226585D01*
X77799999Y-47226582D01*
X77799989Y-47226532D01*
X78239500Y-47226532D01*
X78239500Y-47433467D01*
X78279869Y-47636418D01*
X78359058Y-47827597D01*
X78473805Y-47999329D01*
X78474023Y-47999655D01*
X78620345Y-48145977D01*
X78792402Y-48260941D01*
X78983580Y-48340130D01*
X79186535Y-48380500D01*
X79186536Y-48380500D01*
X79393464Y-48380500D01*
X79393465Y-48380500D01*
X79596420Y-48340130D01*
X79787598Y-48260941D01*
X79959655Y-48145977D01*
X80105977Y-47999655D01*
X80220941Y-47827598D01*
X80261327Y-47730099D01*
X80268984Y-47711614D01*
X80308721Y-47665088D01*
X80360448Y-47650500D01*
X82170388Y-47650500D01*
X82228579Y-47669407D01*
X82261852Y-47711615D01*
X82303139Y-47811290D01*
X82308368Y-47823914D01*
X82417861Y-47987782D01*
X82557218Y-48127139D01*
X82721086Y-48236632D01*
X82903165Y-48312051D01*
X83096459Y-48350500D01*
X83096460Y-48350500D01*
X83293540Y-48350500D01*
X83293541Y-48350500D01*
X83486835Y-48312051D01*
X83668914Y-48236632D01*
X83832782Y-48127139D01*
X83972139Y-47987782D01*
X84081632Y-47823914D01*
X84157051Y-47641835D01*
X84195500Y-47448541D01*
X84195500Y-47251459D01*
X84157051Y-47058165D01*
X84081632Y-46876086D01*
X83972139Y-46712218D01*
X83832782Y-46572861D01*
X83668914Y-46463368D01*
X83668915Y-46463368D01*
X83668913Y-46463367D01*
X83486835Y-46387949D01*
X83293543Y-46349500D01*
X83293541Y-46349500D01*
X83096459Y-46349500D01*
X83096456Y-46349500D01*
X82903165Y-46387949D01*
X82903163Y-46387949D01*
X82721086Y-46463367D01*
X82557218Y-46572861D01*
X82557214Y-46572864D01*
X82417864Y-46712214D01*
X82417861Y-46712218D01*
X82308367Y-46876087D01*
X82261852Y-46988385D01*
X82222116Y-47034911D01*
X82170388Y-47049500D01*
X80377016Y-47049500D01*
X80318825Y-47030593D01*
X80285552Y-46988386D01*
X80220941Y-46832402D01*
X80105979Y-46660348D01*
X80105977Y-46660345D01*
X79959655Y-46514023D01*
X79883844Y-46463368D01*
X79787597Y-46399058D01*
X79596418Y-46319869D01*
X79393467Y-46279500D01*
X79393465Y-46279500D01*
X79186535Y-46279500D01*
X79186532Y-46279500D01*
X78983581Y-46319869D01*
X78792402Y-46399058D01*
X78620348Y-46514020D01*
X78474020Y-46660348D01*
X78359058Y-46832402D01*
X78279869Y-47023581D01*
X78239500Y-47226532D01*
X77799989Y-47226532D01*
X77759650Y-47023727D01*
X77680498Y-46832639D01*
X77680491Y-46832625D01*
X77565594Y-46660670D01*
X77563173Y-46658249D01*
X77167788Y-47053632D01*
X77150099Y-47022993D01*
X77057007Y-46929901D01*
X77026365Y-46912210D01*
X77421750Y-46516826D01*
X77419329Y-46514405D01*
X77247374Y-46399508D01*
X77247360Y-46399501D01*
X77056272Y-46320349D01*
X76853418Y-46280000D01*
X76646581Y-46280000D01*
X76443727Y-46320349D01*
X76252639Y-46399501D01*
X76252630Y-46399505D01*
X76080665Y-46514410D01*
X76078248Y-46516825D01*
X76473633Y-46912210D01*
X76442993Y-46929901D01*
X76349901Y-47022993D01*
X76332210Y-47053633D01*
X75936825Y-46658248D01*
X75934410Y-46660665D01*
X75819505Y-46832630D01*
X75819501Y-46832639D01*
X75740349Y-47023727D01*
X75700000Y-47226581D01*
X75500500Y-47226581D01*
X75500500Y-44686581D01*
X75700000Y-44686581D01*
X75700000Y-44893418D01*
X75740349Y-45096272D01*
X75819501Y-45287360D01*
X75819508Y-45287374D01*
X75934405Y-45459329D01*
X75936826Y-45461750D01*
X76332210Y-45066365D01*
X76349901Y-45097007D01*
X76442993Y-45190099D01*
X76473632Y-45207788D01*
X76078249Y-45603173D01*
X76080670Y-45605594D01*
X76252625Y-45720491D01*
X76252639Y-45720498D01*
X76443727Y-45799650D01*
X76646581Y-45839999D01*
X76646586Y-45840000D01*
X76853414Y-45840000D01*
X76853418Y-45839999D01*
X77056272Y-45799650D01*
X77247360Y-45720498D01*
X77247366Y-45720495D01*
X77419333Y-45605591D01*
X77421750Y-45603173D01*
X77026366Y-45207789D01*
X77057007Y-45190099D01*
X77150099Y-45097007D01*
X77167789Y-45066366D01*
X77563173Y-45461750D01*
X77565591Y-45459333D01*
X77680495Y-45287366D01*
X77680498Y-45287360D01*
X77759650Y-45096272D01*
X77799999Y-44893418D01*
X77800000Y-44893413D01*
X77800000Y-44686585D01*
X77799999Y-44686582D01*
X77799989Y-44686532D01*
X78239500Y-44686532D01*
X78239500Y-44893467D01*
X78279869Y-45096418D01*
X78359058Y-45287597D01*
X78473805Y-45459329D01*
X78474023Y-45459655D01*
X78620345Y-45605977D01*
X78792402Y-45720941D01*
X78983580Y-45800130D01*
X79186535Y-45840500D01*
X79186536Y-45840500D01*
X79393464Y-45840500D01*
X79393465Y-45840500D01*
X79596420Y-45800130D01*
X79787598Y-45720941D01*
X79959655Y-45605977D01*
X80105977Y-45459655D01*
X80220941Y-45287598D01*
X80261327Y-45190099D01*
X80268984Y-45171614D01*
X80308721Y-45125088D01*
X80360448Y-45110500D01*
X82170388Y-45110500D01*
X82228579Y-45129407D01*
X82261852Y-45171615D01*
X82308367Y-45283912D01*
X82308368Y-45283914D01*
X82417861Y-45447782D01*
X82557218Y-45587139D01*
X82721086Y-45696632D01*
X82903165Y-45772051D01*
X83096459Y-45810500D01*
X83096460Y-45810500D01*
X83293540Y-45810500D01*
X83293541Y-45810500D01*
X83486835Y-45772051D01*
X83668914Y-45696632D01*
X83832782Y-45587139D01*
X83972139Y-45447782D01*
X84081632Y-45283914D01*
X84157051Y-45101835D01*
X84195500Y-44908541D01*
X84195500Y-44711459D01*
X84157051Y-44518165D01*
X84081632Y-44336086D01*
X83972139Y-44172218D01*
X83832782Y-44032861D01*
X83668914Y-43923368D01*
X83668915Y-43923368D01*
X83668913Y-43923367D01*
X83486835Y-43847949D01*
X83293543Y-43809500D01*
X83293541Y-43809500D01*
X83096459Y-43809500D01*
X83096456Y-43809500D01*
X82903165Y-43847949D01*
X82903163Y-43847949D01*
X82721086Y-43923367D01*
X82557218Y-44032861D01*
X82557214Y-44032864D01*
X82417864Y-44172214D01*
X82417861Y-44172218D01*
X82308367Y-44336087D01*
X82261852Y-44448385D01*
X82222116Y-44494911D01*
X82170388Y-44509500D01*
X80377016Y-44509500D01*
X80318825Y-44490593D01*
X80285552Y-44448386D01*
X80220941Y-44292402D01*
X80105979Y-44120348D01*
X80105977Y-44120345D01*
X79959655Y-43974023D01*
X79883844Y-43923368D01*
X79787597Y-43859058D01*
X79596418Y-43779869D01*
X79393467Y-43739500D01*
X79393465Y-43739500D01*
X79186535Y-43739500D01*
X79186532Y-43739500D01*
X78983581Y-43779869D01*
X78792402Y-43859058D01*
X78620348Y-43974020D01*
X78474020Y-44120348D01*
X78359058Y-44292402D01*
X78279869Y-44483581D01*
X78239500Y-44686532D01*
X77799989Y-44686532D01*
X77759650Y-44483727D01*
X77680498Y-44292639D01*
X77680491Y-44292625D01*
X77565594Y-44120670D01*
X77563173Y-44118249D01*
X77167788Y-44513632D01*
X77150099Y-44482993D01*
X77057007Y-44389901D01*
X77026365Y-44372210D01*
X77421750Y-43976826D01*
X77419329Y-43974405D01*
X77247374Y-43859508D01*
X77247360Y-43859501D01*
X77056272Y-43780349D01*
X76853418Y-43740000D01*
X76646581Y-43740000D01*
X76443727Y-43780349D01*
X76252639Y-43859501D01*
X76252630Y-43859505D01*
X76080665Y-43974410D01*
X76078248Y-43976825D01*
X76473633Y-44372210D01*
X76442993Y-44389901D01*
X76349901Y-44482993D01*
X76332210Y-44513633D01*
X75936825Y-44118248D01*
X75934410Y-44120665D01*
X75819505Y-44292630D01*
X75819501Y-44292639D01*
X75740349Y-44483727D01*
X75700000Y-44686581D01*
X75500500Y-44686581D01*
X75500500Y-42146581D01*
X75700000Y-42146581D01*
X75700000Y-42353418D01*
X75740349Y-42556272D01*
X75819501Y-42747360D01*
X75819508Y-42747374D01*
X75934405Y-42919329D01*
X75936826Y-42921750D01*
X76332210Y-42526365D01*
X76349901Y-42557007D01*
X76442993Y-42650099D01*
X76473632Y-42667788D01*
X76078249Y-43063173D01*
X76080670Y-43065594D01*
X76252625Y-43180491D01*
X76252639Y-43180498D01*
X76443727Y-43259650D01*
X76646581Y-43299999D01*
X76646586Y-43300000D01*
X76853414Y-43300000D01*
X76853418Y-43299999D01*
X77056272Y-43259650D01*
X77247360Y-43180498D01*
X77247366Y-43180495D01*
X77419333Y-43065591D01*
X77421750Y-43063173D01*
X77026366Y-42667789D01*
X77057007Y-42650099D01*
X77150099Y-42557007D01*
X77167789Y-42526366D01*
X77563173Y-42921750D01*
X77565591Y-42919333D01*
X77680495Y-42747366D01*
X77680498Y-42747360D01*
X77759650Y-42556272D01*
X77799999Y-42353418D01*
X77800000Y-42353413D01*
X77800000Y-42146585D01*
X77799999Y-42146582D01*
X77799989Y-42146532D01*
X78239500Y-42146532D01*
X78239500Y-42353467D01*
X78279869Y-42556418D01*
X78359058Y-42747597D01*
X78473805Y-42919329D01*
X78474023Y-42919655D01*
X78620345Y-43065977D01*
X78792402Y-43180941D01*
X78983580Y-43260130D01*
X79186535Y-43300500D01*
X79186536Y-43300500D01*
X79393464Y-43300500D01*
X79393465Y-43300500D01*
X79596420Y-43260130D01*
X79787598Y-43180941D01*
X79959655Y-43065977D01*
X80105977Y-42919655D01*
X80220941Y-42747598D01*
X80261327Y-42650099D01*
X80268984Y-42631614D01*
X80308721Y-42585088D01*
X80360448Y-42570500D01*
X82170388Y-42570500D01*
X82228579Y-42589407D01*
X82261852Y-42631615D01*
X82304730Y-42735132D01*
X82308368Y-42743914D01*
X82417861Y-42907782D01*
X82557218Y-43047139D01*
X82721086Y-43156632D01*
X82903165Y-43232051D01*
X83096459Y-43270500D01*
X83096460Y-43270500D01*
X83293540Y-43270500D01*
X83293541Y-43270500D01*
X83486835Y-43232051D01*
X83668914Y-43156632D01*
X83832782Y-43047139D01*
X83972139Y-42907782D01*
X84081632Y-42743914D01*
X84157051Y-42561835D01*
X84195500Y-42368541D01*
X84195500Y-42171459D01*
X84157051Y-41978165D01*
X84081632Y-41796086D01*
X83972139Y-41632218D01*
X83832782Y-41492861D01*
X83673799Y-41386632D01*
X83668913Y-41383367D01*
X83486835Y-41307949D01*
X83293543Y-41269500D01*
X83293541Y-41269500D01*
X83096459Y-41269500D01*
X83096456Y-41269500D01*
X82903165Y-41307949D01*
X82903163Y-41307949D01*
X82721086Y-41383367D01*
X82557218Y-41492861D01*
X82557214Y-41492864D01*
X82417864Y-41632214D01*
X82417861Y-41632218D01*
X82308367Y-41796087D01*
X82261852Y-41908385D01*
X82222116Y-41954911D01*
X82170388Y-41969500D01*
X80377016Y-41969500D01*
X80318825Y-41950593D01*
X80285552Y-41908386D01*
X80220941Y-41752402D01*
X80105979Y-41580348D01*
X80105977Y-41580345D01*
X79959655Y-41434023D01*
X79888729Y-41386632D01*
X79787597Y-41319058D01*
X79596418Y-41239869D01*
X79393467Y-41199500D01*
X79393465Y-41199500D01*
X79186535Y-41199500D01*
X79186532Y-41199500D01*
X78983581Y-41239869D01*
X78792402Y-41319058D01*
X78620348Y-41434020D01*
X78474020Y-41580348D01*
X78359058Y-41752402D01*
X78279869Y-41943581D01*
X78239500Y-42146532D01*
X77799989Y-42146532D01*
X77759650Y-41943727D01*
X77680498Y-41752639D01*
X77680491Y-41752625D01*
X77565594Y-41580670D01*
X77563173Y-41578249D01*
X77167788Y-41973632D01*
X77150099Y-41942993D01*
X77057007Y-41849901D01*
X77026365Y-41832210D01*
X77421750Y-41436826D01*
X77419329Y-41434405D01*
X77247374Y-41319508D01*
X77247360Y-41319501D01*
X77056272Y-41240349D01*
X76853418Y-41200000D01*
X76646581Y-41200000D01*
X76443727Y-41240349D01*
X76252639Y-41319501D01*
X76252630Y-41319505D01*
X76080665Y-41434410D01*
X76078248Y-41436825D01*
X76473633Y-41832210D01*
X76442993Y-41849901D01*
X76349901Y-41942993D01*
X76332210Y-41973633D01*
X75936825Y-41578248D01*
X75934410Y-41580665D01*
X75819505Y-41752630D01*
X75819501Y-41752639D01*
X75740349Y-41943727D01*
X75700000Y-42146581D01*
X75500500Y-42146581D01*
X75500500Y-39606581D01*
X75700000Y-39606581D01*
X75700000Y-39813418D01*
X75740349Y-40016272D01*
X75819501Y-40207360D01*
X75819508Y-40207374D01*
X75934405Y-40379329D01*
X75936826Y-40381750D01*
X76332210Y-39986365D01*
X76349901Y-40017007D01*
X76442993Y-40110099D01*
X76473632Y-40127788D01*
X76078249Y-40523173D01*
X76080670Y-40525594D01*
X76252625Y-40640491D01*
X76252639Y-40640498D01*
X76443727Y-40719650D01*
X76646581Y-40759999D01*
X76646586Y-40760000D01*
X76853414Y-40760000D01*
X76853418Y-40759999D01*
X77056272Y-40719650D01*
X77247360Y-40640498D01*
X77247366Y-40640495D01*
X77419333Y-40525591D01*
X77421750Y-40523173D01*
X77026366Y-40127789D01*
X77057007Y-40110099D01*
X77150099Y-40017007D01*
X77167789Y-39986366D01*
X77563173Y-40381750D01*
X77565591Y-40379333D01*
X77680495Y-40207366D01*
X77680498Y-40207360D01*
X77759650Y-40016272D01*
X77799999Y-39813418D01*
X77800000Y-39813413D01*
X77800000Y-39606585D01*
X77799999Y-39606582D01*
X77799989Y-39606532D01*
X78239500Y-39606532D01*
X78239500Y-39813467D01*
X78279869Y-40016418D01*
X78359058Y-40207597D01*
X78473805Y-40379329D01*
X78474023Y-40379655D01*
X78620345Y-40525977D01*
X78792402Y-40640941D01*
X78983580Y-40720130D01*
X79186535Y-40760500D01*
X79186536Y-40760500D01*
X79393464Y-40760500D01*
X79393465Y-40760500D01*
X79596420Y-40720130D01*
X79787598Y-40640941D01*
X79959655Y-40525977D01*
X80105977Y-40379655D01*
X80220941Y-40207598D01*
X80261327Y-40110099D01*
X80268984Y-40091614D01*
X80308721Y-40045088D01*
X80360448Y-40030500D01*
X82170388Y-40030500D01*
X82228579Y-40049407D01*
X82261852Y-40091615D01*
X82304730Y-40195131D01*
X82308368Y-40203914D01*
X82417861Y-40367782D01*
X82557218Y-40507139D01*
X82721086Y-40616632D01*
X82903165Y-40692051D01*
X83096459Y-40730500D01*
X83096460Y-40730500D01*
X83293540Y-40730500D01*
X83293541Y-40730500D01*
X83486835Y-40692051D01*
X83668914Y-40616632D01*
X83832782Y-40507139D01*
X83972139Y-40367782D01*
X84081632Y-40203914D01*
X84157051Y-40021835D01*
X84195500Y-39828541D01*
X84195500Y-39631459D01*
X84157051Y-39438165D01*
X84081632Y-39256086D01*
X83972139Y-39092218D01*
X83832782Y-38952861D01*
X83668914Y-38843368D01*
X83668915Y-38843368D01*
X83668913Y-38843367D01*
X83486835Y-38767949D01*
X83293543Y-38729500D01*
X83293541Y-38729500D01*
X83096459Y-38729500D01*
X83096456Y-38729500D01*
X82903165Y-38767949D01*
X82903163Y-38767949D01*
X82721086Y-38843367D01*
X82557218Y-38952861D01*
X82557214Y-38952864D01*
X82417864Y-39092214D01*
X82417861Y-39092218D01*
X82308367Y-39256087D01*
X82261852Y-39368385D01*
X82222116Y-39414911D01*
X82170388Y-39429500D01*
X80377016Y-39429500D01*
X80318825Y-39410593D01*
X80285552Y-39368386D01*
X80282995Y-39362214D01*
X80220941Y-39212402D01*
X80105977Y-39040345D01*
X79959655Y-38894023D01*
X79883844Y-38843368D01*
X79787597Y-38779058D01*
X79596418Y-38699869D01*
X79393467Y-38659500D01*
X79393465Y-38659500D01*
X79186535Y-38659500D01*
X79186532Y-38659500D01*
X78983581Y-38699869D01*
X78792402Y-38779058D01*
X78620348Y-38894020D01*
X78474020Y-39040348D01*
X78359058Y-39212402D01*
X78279869Y-39403581D01*
X78239500Y-39606532D01*
X77799989Y-39606532D01*
X77759650Y-39403727D01*
X77680498Y-39212639D01*
X77680491Y-39212625D01*
X77565594Y-39040670D01*
X77563173Y-39038249D01*
X77167788Y-39433632D01*
X77150099Y-39402993D01*
X77057007Y-39309901D01*
X77026365Y-39292210D01*
X77421750Y-38896826D01*
X77419329Y-38894405D01*
X77247374Y-38779508D01*
X77247360Y-38779501D01*
X77056272Y-38700349D01*
X76853418Y-38660000D01*
X76646581Y-38660000D01*
X76443727Y-38700349D01*
X76252639Y-38779501D01*
X76252630Y-38779505D01*
X76080665Y-38894410D01*
X76078248Y-38896825D01*
X76473633Y-39292210D01*
X76442993Y-39309901D01*
X76349901Y-39402993D01*
X76332210Y-39433633D01*
X75936825Y-39038248D01*
X75934410Y-39040665D01*
X75819505Y-39212630D01*
X75819501Y-39212639D01*
X75740349Y-39403727D01*
X75700000Y-39606581D01*
X75500500Y-39606581D01*
X75500500Y-37066581D01*
X75700000Y-37066581D01*
X75700000Y-37273418D01*
X75740349Y-37476272D01*
X75819501Y-37667360D01*
X75819508Y-37667374D01*
X75934405Y-37839329D01*
X75936826Y-37841750D01*
X76332210Y-37446365D01*
X76349901Y-37477007D01*
X76442993Y-37570099D01*
X76473632Y-37587788D01*
X76078249Y-37983173D01*
X76080670Y-37985594D01*
X76252625Y-38100491D01*
X76252639Y-38100498D01*
X76443727Y-38179650D01*
X76646581Y-38219999D01*
X76646586Y-38220000D01*
X76853414Y-38220000D01*
X76853418Y-38219999D01*
X77056272Y-38179650D01*
X77247360Y-38100498D01*
X77247366Y-38100495D01*
X77419333Y-37985591D01*
X77421750Y-37983173D01*
X77026366Y-37587789D01*
X77057007Y-37570099D01*
X77150099Y-37477007D01*
X77167789Y-37446366D01*
X77563173Y-37841750D01*
X77565591Y-37839333D01*
X77680495Y-37667366D01*
X77680498Y-37667360D01*
X77759650Y-37476272D01*
X77799999Y-37273418D01*
X77800000Y-37273413D01*
X77800000Y-37066585D01*
X77799999Y-37066582D01*
X77799989Y-37066532D01*
X78239500Y-37066532D01*
X78239500Y-37273467D01*
X78279869Y-37476418D01*
X78359058Y-37667597D01*
X78473805Y-37839329D01*
X78474023Y-37839655D01*
X78620345Y-37985977D01*
X78792402Y-38100941D01*
X78983580Y-38180130D01*
X79186535Y-38220500D01*
X79186536Y-38220500D01*
X79393464Y-38220500D01*
X79393465Y-38220500D01*
X79596420Y-38180130D01*
X79787598Y-38100941D01*
X79959655Y-37985977D01*
X80105977Y-37839655D01*
X80220941Y-37667598D01*
X80249546Y-37598541D01*
X80268984Y-37551614D01*
X80308721Y-37505088D01*
X80360448Y-37490500D01*
X82170388Y-37490500D01*
X82228579Y-37509407D01*
X82261852Y-37551615D01*
X82300970Y-37646054D01*
X82308368Y-37663914D01*
X82417861Y-37827782D01*
X82557218Y-37967139D01*
X82721086Y-38076632D01*
X82903165Y-38152051D01*
X83096459Y-38190500D01*
X83096460Y-38190500D01*
X83293540Y-38190500D01*
X83293541Y-38190500D01*
X83486835Y-38152051D01*
X83668914Y-38076632D01*
X83832782Y-37967139D01*
X83972139Y-37827782D01*
X84081632Y-37663914D01*
X84157051Y-37481835D01*
X84195500Y-37288541D01*
X84195500Y-37091506D01*
X89815000Y-37091506D01*
X89815000Y-37288493D01*
X89853429Y-37481688D01*
X89853429Y-37481690D01*
X89928809Y-37663675D01*
X89928812Y-37663681D01*
X90037392Y-37826182D01*
X90470414Y-37393160D01*
X90494920Y-37435606D01*
X90569394Y-37510080D01*
X90611836Y-37534584D01*
X90178816Y-37967605D01*
X90341324Y-38076190D01*
X90523310Y-38151570D01*
X90716506Y-38189999D01*
X90716510Y-38190000D01*
X90913490Y-38190000D01*
X90913493Y-38189999D01*
X91106687Y-38151571D01*
X91112301Y-38149246D01*
X91112303Y-38149245D01*
X91288675Y-38076190D01*
X91451182Y-37967605D01*
X91018161Y-37534584D01*
X91060606Y-37510080D01*
X91135080Y-37435606D01*
X91159584Y-37393161D01*
X91592605Y-37826182D01*
X91701190Y-37663675D01*
X91776570Y-37481690D01*
X91776570Y-37481688D01*
X91792520Y-37401506D01*
X93000000Y-37401506D01*
X93000000Y-37598493D01*
X93038429Y-37791688D01*
X93038429Y-37791690D01*
X93113809Y-37973675D01*
X93113812Y-37973681D01*
X93222392Y-38136182D01*
X93655414Y-37703160D01*
X93679920Y-37745606D01*
X93754394Y-37820080D01*
X93796836Y-37844584D01*
X93363816Y-38277605D01*
X93526324Y-38386190D01*
X93708310Y-38461570D01*
X93901506Y-38499999D01*
X93901510Y-38500000D01*
X94098490Y-38500000D01*
X94098493Y-38499999D01*
X94291688Y-38461570D01*
X94291690Y-38461570D01*
X94473675Y-38386190D01*
X94636182Y-38277605D01*
X94203161Y-37844584D01*
X94245606Y-37820080D01*
X94320080Y-37745606D01*
X94344584Y-37703161D01*
X94777605Y-38136182D01*
X94886190Y-37973675D01*
X94961570Y-37791690D01*
X94961570Y-37791688D01*
X94999999Y-37598493D01*
X95000000Y-37598490D01*
X95000000Y-37401509D01*
X94999999Y-37401506D01*
X94961570Y-37208311D01*
X94961570Y-37208309D01*
X94886190Y-37026324D01*
X94777605Y-36863816D01*
X94344584Y-37296836D01*
X94320080Y-37254394D01*
X94245606Y-37179920D01*
X94203160Y-37155414D01*
X94636183Y-36722392D01*
X94473681Y-36613812D01*
X94473675Y-36613809D01*
X94291689Y-36538429D01*
X94098493Y-36500000D01*
X93901506Y-36500000D01*
X93708311Y-36538429D01*
X93708309Y-36538429D01*
X93526326Y-36613808D01*
X93526314Y-36613814D01*
X93363816Y-36722393D01*
X93796838Y-37155415D01*
X93754394Y-37179920D01*
X93679920Y-37254394D01*
X93655415Y-37296838D01*
X93222393Y-36863816D01*
X93113814Y-37026314D01*
X93113808Y-37026326D01*
X93038429Y-37208309D01*
X93038429Y-37208311D01*
X93000000Y-37401506D01*
X91792520Y-37401506D01*
X91797329Y-37377332D01*
X91814999Y-37288493D01*
X91815000Y-37288490D01*
X91815000Y-37091509D01*
X91814999Y-37091506D01*
X91776570Y-36898311D01*
X91776570Y-36898309D01*
X91734679Y-36797173D01*
X91701189Y-36716322D01*
X91592605Y-36553816D01*
X91159584Y-36986836D01*
X91135080Y-36944394D01*
X91060606Y-36869920D01*
X91018160Y-36845414D01*
X91451183Y-36412392D01*
X91288681Y-36303812D01*
X91288675Y-36303809D01*
X91106689Y-36228429D01*
X90913493Y-36190000D01*
X90716506Y-36190000D01*
X90523311Y-36228429D01*
X90523309Y-36228429D01*
X90341326Y-36303808D01*
X90341314Y-36303814D01*
X90178816Y-36412393D01*
X90611838Y-36845415D01*
X90569394Y-36869920D01*
X90494920Y-36944394D01*
X90470415Y-36986838D01*
X90037393Y-36553816D01*
X89928814Y-36716314D01*
X89928808Y-36716326D01*
X89853429Y-36898309D01*
X89853429Y-36898311D01*
X89815000Y-37091506D01*
X84195500Y-37091506D01*
X84195500Y-37091459D01*
X84157051Y-36898165D01*
X84081632Y-36716086D01*
X83972139Y-36552218D01*
X83832782Y-36412861D01*
X83723288Y-36339699D01*
X83668913Y-36303367D01*
X83486835Y-36227949D01*
X83293543Y-36189500D01*
X83293541Y-36189500D01*
X83096459Y-36189500D01*
X83096456Y-36189500D01*
X82903165Y-36227949D01*
X82903163Y-36227949D01*
X82721086Y-36303367D01*
X82557218Y-36412861D01*
X82557214Y-36412864D01*
X82417864Y-36552214D01*
X82417861Y-36552218D01*
X82308367Y-36716087D01*
X82261852Y-36828385D01*
X82222116Y-36874911D01*
X82170388Y-36889500D01*
X80377016Y-36889500D01*
X80318825Y-36870593D01*
X80285552Y-36828386D01*
X80282995Y-36822214D01*
X80220941Y-36672402D01*
X80105977Y-36500345D01*
X79959655Y-36354023D01*
X79959651Y-36354020D01*
X79787597Y-36239058D01*
X79596418Y-36159869D01*
X79393467Y-36119500D01*
X79393465Y-36119500D01*
X79186535Y-36119500D01*
X79186532Y-36119500D01*
X78983581Y-36159869D01*
X78792402Y-36239058D01*
X78620348Y-36354020D01*
X78474020Y-36500348D01*
X78359058Y-36672402D01*
X78279869Y-36863581D01*
X78239500Y-37066532D01*
X77799989Y-37066532D01*
X77759650Y-36863727D01*
X77680498Y-36672639D01*
X77680491Y-36672625D01*
X77565594Y-36500670D01*
X77563173Y-36498249D01*
X77167788Y-36893632D01*
X77150099Y-36862993D01*
X77057007Y-36769901D01*
X77026365Y-36752210D01*
X77421750Y-36356826D01*
X77419329Y-36354405D01*
X77247374Y-36239508D01*
X77247360Y-36239501D01*
X77056272Y-36160349D01*
X76853418Y-36120000D01*
X76646581Y-36120000D01*
X76443727Y-36160349D01*
X76252639Y-36239501D01*
X76252630Y-36239505D01*
X76080665Y-36354410D01*
X76078248Y-36356825D01*
X76473633Y-36752210D01*
X76442993Y-36769901D01*
X76349901Y-36862993D01*
X76332210Y-36893633D01*
X75936825Y-36498248D01*
X75934410Y-36500665D01*
X75819505Y-36672630D01*
X75819501Y-36672639D01*
X75740349Y-36863727D01*
X75700000Y-37066581D01*
X75500500Y-37066581D01*
X75500500Y-34526581D01*
X75700000Y-34526581D01*
X75700000Y-34733418D01*
X75740349Y-34936272D01*
X75819501Y-35127360D01*
X75819508Y-35127374D01*
X75934405Y-35299329D01*
X75936826Y-35301750D01*
X76332210Y-34906365D01*
X76349901Y-34937007D01*
X76442993Y-35030099D01*
X76473632Y-35047788D01*
X76078249Y-35443173D01*
X76080670Y-35445594D01*
X76252625Y-35560491D01*
X76252639Y-35560498D01*
X76443727Y-35639650D01*
X76646581Y-35679999D01*
X76646586Y-35680000D01*
X76853414Y-35680000D01*
X76853418Y-35679999D01*
X77056272Y-35639650D01*
X77247360Y-35560498D01*
X77247366Y-35560495D01*
X77419333Y-35445591D01*
X77421750Y-35443173D01*
X77026366Y-35047789D01*
X77057007Y-35030099D01*
X77150099Y-34937007D01*
X77167789Y-34906366D01*
X77563173Y-35301750D01*
X77565591Y-35299333D01*
X77680495Y-35127366D01*
X77680498Y-35127360D01*
X77759650Y-34936272D01*
X77799999Y-34733418D01*
X77800000Y-34733413D01*
X77800000Y-34526586D01*
X77799999Y-34526581D01*
X77759650Y-34323727D01*
X77680498Y-34132639D01*
X77680491Y-34132625D01*
X77565594Y-33960670D01*
X77563173Y-33958249D01*
X77167788Y-34353632D01*
X77150099Y-34322993D01*
X77057007Y-34229901D01*
X77026365Y-34212210D01*
X77421750Y-33816826D01*
X77419329Y-33814405D01*
X77338285Y-33760253D01*
X78239500Y-33760253D01*
X78239500Y-35499746D01*
X78239501Y-35499758D01*
X78251132Y-35558227D01*
X78251134Y-35558233D01*
X78287094Y-35612050D01*
X78295448Y-35624552D01*
X78361769Y-35668867D01*
X78406231Y-35677711D01*
X78420241Y-35680498D01*
X78420246Y-35680498D01*
X78420252Y-35680500D01*
X78420253Y-35680500D01*
X80159747Y-35680500D01*
X80159748Y-35680500D01*
X80218231Y-35668867D01*
X80284552Y-35624552D01*
X80328867Y-35558231D01*
X80340500Y-35499748D01*
X80340500Y-35049500D01*
X80359407Y-34991309D01*
X80408907Y-34955345D01*
X80439500Y-34950500D01*
X82170388Y-34950500D01*
X82228579Y-34969407D01*
X82261852Y-35011615D01*
X82297837Y-35098490D01*
X82308368Y-35123914D01*
X82417861Y-35287782D01*
X82557218Y-35427139D01*
X82721086Y-35536632D01*
X82903165Y-35612051D01*
X83096459Y-35650500D01*
X83096460Y-35650500D01*
X83293540Y-35650500D01*
X83293541Y-35650500D01*
X83486835Y-35612051D01*
X83668914Y-35536632D01*
X83832782Y-35427139D01*
X83972139Y-35287782D01*
X84081632Y-35123914D01*
X84157051Y-34941835D01*
X84195500Y-34748541D01*
X84195500Y-34551459D01*
X84195499Y-34551456D01*
X89814500Y-34551456D01*
X89814500Y-34748543D01*
X89833808Y-34845606D01*
X89851842Y-34936272D01*
X89852949Y-34941834D01*
X89852949Y-34941836D01*
X89928367Y-35123913D01*
X89940066Y-35141422D01*
X90037861Y-35287782D01*
X90177218Y-35427139D01*
X90341086Y-35536632D01*
X90523165Y-35612051D01*
X90716459Y-35650500D01*
X90716460Y-35650500D01*
X90913540Y-35650500D01*
X90913541Y-35650500D01*
X91106835Y-35612051D01*
X91288914Y-35536632D01*
X91369367Y-35482875D01*
X91392851Y-35467184D01*
X91447852Y-35450500D01*
X93044807Y-35450500D01*
X93102998Y-35469407D01*
X93127121Y-35494497D01*
X93222861Y-35637782D01*
X93362218Y-35777139D01*
X93526086Y-35886632D01*
X93708165Y-35962051D01*
X93901459Y-36000500D01*
X93901460Y-36000500D01*
X94098540Y-36000500D01*
X94098541Y-36000500D01*
X94267555Y-35966880D01*
X94328314Y-35974071D01*
X94356871Y-35993974D01*
X95987716Y-37624819D01*
X96014810Y-37675509D01*
X96029992Y-37751835D01*
X96037949Y-37791834D01*
X96037949Y-37791836D01*
X96113367Y-37973913D01*
X96149699Y-38028288D01*
X96222861Y-38137782D01*
X96362218Y-38277139D01*
X96466222Y-38346632D01*
X96505502Y-38372878D01*
X96543381Y-38420928D01*
X96549500Y-38455193D01*
X96549500Y-39544806D01*
X96530593Y-39602997D01*
X96505502Y-39627121D01*
X96362218Y-39722861D01*
X96362214Y-39722864D01*
X96222864Y-39862214D01*
X96222861Y-39862218D01*
X96113367Y-40026086D01*
X96037949Y-40208163D01*
X96037949Y-40208165D01*
X95999500Y-40401456D01*
X95999500Y-40598543D01*
X96037949Y-40791834D01*
X96037949Y-40791836D01*
X96113367Y-40973913D01*
X96131132Y-41000500D01*
X96222861Y-41137782D01*
X96362218Y-41277139D01*
X96526086Y-41386632D01*
X96708165Y-41462051D01*
X96901459Y-41500500D01*
X96901460Y-41500500D01*
X97098540Y-41500500D01*
X97098541Y-41500500D01*
X97291835Y-41462051D01*
X97473914Y-41386632D01*
X97637782Y-41277139D01*
X97777139Y-41137782D01*
X97872878Y-40994497D01*
X97920928Y-40956619D01*
X97955193Y-40950500D01*
X100559309Y-40950500D01*
X100600300Y-40939516D01*
X100661401Y-40942717D01*
X100663759Y-40943657D01*
X100708165Y-40962051D01*
X100901459Y-41000500D01*
X100901460Y-41000500D01*
X101098540Y-41000500D01*
X101098541Y-41000500D01*
X101291835Y-40962051D01*
X101473914Y-40886632D01*
X101637782Y-40777139D01*
X101777139Y-40637782D01*
X101886632Y-40473914D01*
X101962051Y-40291835D01*
X102000500Y-40098541D01*
X102000500Y-39901459D01*
X101962051Y-39708165D01*
X101886632Y-39526086D01*
X101886632Y-39526085D01*
X101886630Y-39526083D01*
X101806845Y-39406675D01*
X101806843Y-39406673D01*
X101777139Y-39362218D01*
X101771453Y-39356532D01*
X103409500Y-39356532D01*
X103409500Y-39563467D01*
X103449869Y-39766418D01*
X103529058Y-39957597D01*
X103630956Y-40110099D01*
X103644023Y-40129655D01*
X103790345Y-40275977D01*
X103962402Y-40390941D01*
X104153580Y-40470130D01*
X104356535Y-40510500D01*
X104356536Y-40510500D01*
X104563464Y-40510500D01*
X104563465Y-40510500D01*
X104766420Y-40470130D01*
X104957598Y-40390941D01*
X105129655Y-40275977D01*
X105275977Y-40129655D01*
X105390941Y-39957598D01*
X105470130Y-39766420D01*
X105510500Y-39563465D01*
X105510500Y-39356535D01*
X105510499Y-39356532D01*
X105949500Y-39356532D01*
X105949500Y-39563467D01*
X105989869Y-39766418D01*
X106069058Y-39957597D01*
X106170956Y-40110099D01*
X106184023Y-40129655D01*
X106330345Y-40275977D01*
X106502402Y-40390941D01*
X106693580Y-40470130D01*
X106896535Y-40510500D01*
X106896536Y-40510500D01*
X107103464Y-40510500D01*
X107103465Y-40510500D01*
X107306420Y-40470130D01*
X107497598Y-40390941D01*
X107669655Y-40275977D01*
X107815977Y-40129655D01*
X107930941Y-39957598D01*
X108010130Y-39766420D01*
X108050500Y-39563465D01*
X108050500Y-39356535D01*
X108010130Y-39153580D01*
X107930941Y-38962402D01*
X107815977Y-38790345D01*
X107669655Y-38644023D01*
X107497598Y-38529059D01*
X107497599Y-38529059D01*
X107497597Y-38529058D01*
X107306418Y-38449869D01*
X107103467Y-38409500D01*
X107103465Y-38409500D01*
X106896535Y-38409500D01*
X106896532Y-38409500D01*
X106693581Y-38449869D01*
X106502402Y-38529058D01*
X106330348Y-38644020D01*
X106184020Y-38790348D01*
X106069058Y-38962402D01*
X105989869Y-39153581D01*
X105949500Y-39356532D01*
X105510499Y-39356532D01*
X105470130Y-39153580D01*
X105390941Y-38962402D01*
X105275977Y-38790345D01*
X105129655Y-38644023D01*
X104957598Y-38529059D01*
X104957599Y-38529059D01*
X104957597Y-38529058D01*
X104766418Y-38449869D01*
X104563467Y-38409500D01*
X104563465Y-38409500D01*
X104356535Y-38409500D01*
X104356532Y-38409500D01*
X104153581Y-38449869D01*
X103962402Y-38529058D01*
X103790348Y-38644020D01*
X103644020Y-38790348D01*
X103529058Y-38962402D01*
X103449869Y-39153581D01*
X103409500Y-39356532D01*
X101771453Y-39356532D01*
X101637785Y-39222864D01*
X101637782Y-39222861D01*
X101473914Y-39113368D01*
X101473915Y-39113368D01*
X101473913Y-39113367D01*
X101291835Y-39037949D01*
X101098543Y-38999500D01*
X101098541Y-38999500D01*
X100901459Y-38999500D01*
X100901456Y-38999500D01*
X100708165Y-39037949D01*
X100708163Y-39037949D01*
X100526086Y-39113367D01*
X100362218Y-39222861D01*
X100362214Y-39222864D01*
X100222864Y-39362214D01*
X100222861Y-39362218D01*
X100113367Y-39526086D01*
X100037949Y-39708163D01*
X100037949Y-39708165D01*
X99999500Y-39901456D01*
X99999500Y-39950500D01*
X99980593Y-40008691D01*
X99931093Y-40044655D01*
X99900500Y-40049500D01*
X97955193Y-40049500D01*
X97897002Y-40030593D01*
X97872878Y-40005502D01*
X97777139Y-39862218D01*
X97637782Y-39722861D01*
X97571529Y-39678592D01*
X97494498Y-39627121D01*
X97456619Y-39579071D01*
X97450500Y-39544806D01*
X97450500Y-38455193D01*
X97469407Y-38397002D01*
X97494498Y-38372878D01*
X97637782Y-38277139D01*
X97777139Y-38137782D01*
X97886632Y-37973914D01*
X97962051Y-37791835D01*
X98000500Y-37598541D01*
X98000500Y-37401459D01*
X97962051Y-37208165D01*
X97886632Y-37026086D01*
X97777139Y-36862218D01*
X97637782Y-36722861D01*
X97528288Y-36649699D01*
X97473913Y-36613367D01*
X97291835Y-36537949D01*
X97098543Y-36499500D01*
X97098541Y-36499500D01*
X96901459Y-36499500D01*
X96901456Y-36499500D01*
X96708165Y-36537949D01*
X96708163Y-36537949D01*
X96526088Y-36613366D01*
X96428421Y-36678625D01*
X96369533Y-36695233D01*
X96312129Y-36674055D01*
X96303416Y-36666313D01*
X94993974Y-35356871D01*
X94966197Y-35302354D01*
X94966879Y-35267558D01*
X95000500Y-35098541D01*
X95000500Y-34901506D01*
X96000000Y-34901506D01*
X96000000Y-35098493D01*
X96038429Y-35291688D01*
X96038429Y-35291690D01*
X96113809Y-35473675D01*
X96113812Y-35473681D01*
X96222392Y-35636182D01*
X96655414Y-35203160D01*
X96679920Y-35245606D01*
X96754394Y-35320080D01*
X96796836Y-35344584D01*
X96363816Y-35777605D01*
X96526324Y-35886190D01*
X96708310Y-35961570D01*
X96901506Y-35999999D01*
X96901510Y-36000000D01*
X97098490Y-36000000D01*
X97098493Y-35999999D01*
X97291688Y-35961570D01*
X97291690Y-35961570D01*
X97473675Y-35886190D01*
X97636182Y-35777605D01*
X97203161Y-35344584D01*
X97245606Y-35320080D01*
X97320080Y-35245606D01*
X97344584Y-35203161D01*
X97777605Y-35636182D01*
X97886190Y-35473675D01*
X97961570Y-35291690D01*
X97961570Y-35291688D01*
X97999999Y-35098493D01*
X98000000Y-35098490D01*
X98000000Y-34901509D01*
X97999999Y-34901506D01*
X97961570Y-34708311D01*
X97961570Y-34708309D01*
X97886190Y-34526324D01*
X97777605Y-34363816D01*
X97344584Y-34796836D01*
X97320080Y-34754394D01*
X97245606Y-34679920D01*
X97203160Y-34655414D01*
X97636183Y-34222392D01*
X97473681Y-34113812D01*
X97473675Y-34113809D01*
X97291689Y-34038429D01*
X97098493Y-34000000D01*
X96901506Y-34000000D01*
X96708311Y-34038429D01*
X96708309Y-34038429D01*
X96526326Y-34113808D01*
X96526314Y-34113814D01*
X96363816Y-34222393D01*
X96796838Y-34655415D01*
X96754394Y-34679920D01*
X96679920Y-34754394D01*
X96655415Y-34796838D01*
X96222393Y-34363816D01*
X96113814Y-34526314D01*
X96113808Y-34526326D01*
X96038429Y-34708309D01*
X96038429Y-34708311D01*
X96000000Y-34901506D01*
X95000500Y-34901506D01*
X95000500Y-34901459D01*
X94962051Y-34708165D01*
X94886632Y-34526086D01*
X94777139Y-34362218D01*
X94637782Y-34222861D01*
X94498806Y-34130000D01*
X94473913Y-34113367D01*
X94291835Y-34037949D01*
X94098543Y-33999500D01*
X94098541Y-33999500D01*
X93901459Y-33999500D01*
X93901456Y-33999500D01*
X93708165Y-34037949D01*
X93708163Y-34037949D01*
X93526086Y-34113367D01*
X93362218Y-34222861D01*
X93362214Y-34222864D01*
X93222864Y-34362214D01*
X93222861Y-34362218D01*
X93138432Y-34488576D01*
X93127122Y-34505502D01*
X93079072Y-34543381D01*
X93044807Y-34549500D01*
X91896357Y-34549500D01*
X91838166Y-34530593D01*
X91802202Y-34481093D01*
X91799259Y-34469814D01*
X91777051Y-34358165D01*
X91701632Y-34176086D01*
X91592139Y-34012218D01*
X91452782Y-33872861D01*
X91288914Y-33763368D01*
X91288915Y-33763368D01*
X91288913Y-33763367D01*
X91106835Y-33687949D01*
X90913543Y-33649500D01*
X90913541Y-33649500D01*
X90716459Y-33649500D01*
X90716456Y-33649500D01*
X90523165Y-33687949D01*
X90523163Y-33687949D01*
X90341086Y-33763367D01*
X90177218Y-33872861D01*
X90177214Y-33872864D01*
X90037864Y-34012214D01*
X90037861Y-34012218D01*
X89928367Y-34176086D01*
X89852949Y-34358163D01*
X89852949Y-34358165D01*
X89814500Y-34551456D01*
X84195499Y-34551456D01*
X84157051Y-34358165D01*
X84081632Y-34176086D01*
X83972139Y-34012218D01*
X83832782Y-33872861D01*
X83668914Y-33763368D01*
X83668915Y-33763368D01*
X83668913Y-33763367D01*
X83486835Y-33687949D01*
X83293543Y-33649500D01*
X83293541Y-33649500D01*
X83096459Y-33649500D01*
X83096456Y-33649500D01*
X82903165Y-33687949D01*
X82903163Y-33687949D01*
X82721086Y-33763367D01*
X82557218Y-33872861D01*
X82557214Y-33872864D01*
X82417864Y-34012214D01*
X82417861Y-34012218D01*
X82308367Y-34176087D01*
X82261852Y-34288385D01*
X82222116Y-34334911D01*
X82170388Y-34349500D01*
X80439500Y-34349500D01*
X80381309Y-34330593D01*
X80345345Y-34281093D01*
X80340500Y-34250500D01*
X80340500Y-33760253D01*
X80340498Y-33760241D01*
X80330573Y-33710348D01*
X80328867Y-33701769D01*
X80284552Y-33635448D01*
X80284548Y-33635445D01*
X80218233Y-33591134D01*
X80218231Y-33591133D01*
X80218228Y-33591132D01*
X80218227Y-33591132D01*
X80159758Y-33579501D01*
X80159748Y-33579500D01*
X78420252Y-33579500D01*
X78420251Y-33579500D01*
X78420241Y-33579501D01*
X78361772Y-33591132D01*
X78361766Y-33591134D01*
X78295451Y-33635445D01*
X78295445Y-33635451D01*
X78251134Y-33701766D01*
X78251132Y-33701772D01*
X78239501Y-33760241D01*
X78239500Y-33760253D01*
X77338285Y-33760253D01*
X77247374Y-33699508D01*
X77247360Y-33699501D01*
X77056272Y-33620349D01*
X76853418Y-33580000D01*
X76646581Y-33580000D01*
X76443727Y-33620349D01*
X76252639Y-33699501D01*
X76252630Y-33699505D01*
X76080665Y-33814410D01*
X76078248Y-33816825D01*
X76473633Y-34212210D01*
X76442993Y-34229901D01*
X76349901Y-34322993D01*
X76332210Y-34353633D01*
X75936825Y-33958248D01*
X75934410Y-33960665D01*
X75819505Y-34132630D01*
X75819501Y-34132639D01*
X75740349Y-34323727D01*
X75700000Y-34526581D01*
X75500500Y-34526581D01*
X75500500Y-31880455D01*
X75519407Y-31822264D01*
X75568907Y-31786300D01*
X75630093Y-31786300D01*
X75679593Y-31822264D01*
X75681815Y-31825454D01*
X75722392Y-31886182D01*
X76155414Y-31453160D01*
X76179920Y-31495606D01*
X76254394Y-31570080D01*
X76296836Y-31594584D01*
X75863816Y-32027605D01*
X76026324Y-32136190D01*
X76208310Y-32211570D01*
X76401506Y-32249999D01*
X76401510Y-32250000D01*
X76598490Y-32250000D01*
X76598493Y-32249999D01*
X76791688Y-32211570D01*
X76791690Y-32211570D01*
X76973675Y-32136190D01*
X77136182Y-32027605D01*
X76703161Y-31594584D01*
X76745606Y-31570080D01*
X76820080Y-31495606D01*
X76844584Y-31453161D01*
X77277605Y-31886182D01*
X77386190Y-31723675D01*
X77461570Y-31541690D01*
X77461570Y-31541688D01*
X77499999Y-31348493D01*
X77500000Y-31348490D01*
X77500000Y-31151509D01*
X77499999Y-31151506D01*
X77499989Y-31151456D01*
X77999500Y-31151456D01*
X77999500Y-31348543D01*
X78037949Y-31541834D01*
X78037949Y-31541836D01*
X78113367Y-31723913D01*
X78127862Y-31745606D01*
X78222861Y-31887782D01*
X78362218Y-32027139D01*
X78526086Y-32136632D01*
X78708165Y-32212051D01*
X78901459Y-32250500D01*
X78901460Y-32250500D01*
X79098540Y-32250500D01*
X79098541Y-32250500D01*
X79291835Y-32212051D01*
X79473914Y-32136632D01*
X79637782Y-32027139D01*
X79777139Y-31887782D01*
X79886632Y-31723914D01*
X79962051Y-31541835D01*
X79969234Y-31505725D01*
X82194500Y-31505725D01*
X82194500Y-32714274D01*
X82197353Y-32744694D01*
X82197355Y-32744703D01*
X82242207Y-32872883D01*
X82322845Y-32982144D01*
X82322847Y-32982146D01*
X82322850Y-32982150D01*
X82322853Y-32982152D01*
X82322855Y-32982154D01*
X82432116Y-33062792D01*
X82432117Y-33062792D01*
X82432118Y-33062793D01*
X82560301Y-33107646D01*
X82590725Y-33110499D01*
X82590727Y-33110500D01*
X82590734Y-33110500D01*
X83799273Y-33110500D01*
X83799273Y-33110499D01*
X83829699Y-33107646D01*
X83957882Y-33062793D01*
X84067150Y-32982150D01*
X84147793Y-32872882D01*
X84192646Y-32744699D01*
X84195499Y-32714273D01*
X84195500Y-32714273D01*
X84195500Y-32011456D01*
X89814500Y-32011456D01*
X89814500Y-32208543D01*
X89822747Y-32250000D01*
X89848287Y-32378400D01*
X89852949Y-32401834D01*
X89852949Y-32401836D01*
X89928367Y-32583913D01*
X89942122Y-32604498D01*
X90037861Y-32747782D01*
X90177218Y-32887139D01*
X90341086Y-32996632D01*
X90523165Y-33072051D01*
X90716459Y-33110500D01*
X90716460Y-33110500D01*
X90913540Y-33110500D01*
X90913541Y-33110500D01*
X91106835Y-33072051D01*
X91288914Y-32996632D01*
X91452782Y-32887139D01*
X91592139Y-32747782D01*
X91687878Y-32604497D01*
X91735928Y-32566619D01*
X91770193Y-32560500D01*
X98882389Y-32560500D01*
X98940580Y-32579407D01*
X98952393Y-32589496D01*
X100006025Y-33643128D01*
X100033802Y-33697645D01*
X100033119Y-33732446D01*
X99999501Y-33901453D01*
X99999500Y-33901460D01*
X99999500Y-34098543D01*
X100037949Y-34291834D01*
X100037949Y-34291836D01*
X100113367Y-34473913D01*
X100119751Y-34483467D01*
X100222861Y-34637782D01*
X100362218Y-34777139D01*
X100505502Y-34872878D01*
X100543381Y-34920928D01*
X100549500Y-34955193D01*
X100549500Y-36504806D01*
X100530593Y-36562997D01*
X100505502Y-36587121D01*
X100362218Y-36682861D01*
X100362214Y-36682864D01*
X100222864Y-36822214D01*
X100222861Y-36822218D01*
X100113367Y-36986086D01*
X100037949Y-37168163D01*
X100037949Y-37168165D01*
X99999500Y-37361456D01*
X99999500Y-37558543D01*
X100020413Y-37663675D01*
X100034718Y-37735594D01*
X100037949Y-37751834D01*
X100037949Y-37751836D01*
X100113367Y-37933913D01*
X100137479Y-37969999D01*
X100222861Y-38097782D01*
X100362218Y-38237139D01*
X100526086Y-38346632D01*
X100708165Y-38422051D01*
X100901459Y-38460500D01*
X100901460Y-38460500D01*
X101098540Y-38460500D01*
X101098541Y-38460500D01*
X101291835Y-38422051D01*
X101473914Y-38346632D01*
X101637782Y-38237139D01*
X101777139Y-38097782D01*
X101886632Y-37933914D01*
X101962051Y-37751835D01*
X102000500Y-37558541D01*
X102000500Y-37361459D01*
X101962051Y-37168165D01*
X101903295Y-37026314D01*
X101886632Y-36986085D01*
X101886630Y-36986083D01*
X101806845Y-36866675D01*
X101806843Y-36866673D01*
X101777139Y-36822218D01*
X101771453Y-36816532D01*
X103409500Y-36816532D01*
X103409500Y-37023467D01*
X103449869Y-37226418D01*
X103529058Y-37417597D01*
X103630956Y-37570099D01*
X103644023Y-37589655D01*
X103790345Y-37735977D01*
X103962402Y-37850941D01*
X104153580Y-37930130D01*
X104356535Y-37970500D01*
X104356536Y-37970500D01*
X104563464Y-37970500D01*
X104563465Y-37970500D01*
X104766420Y-37930130D01*
X104957598Y-37850941D01*
X105129655Y-37735977D01*
X105275977Y-37589655D01*
X105390941Y-37417598D01*
X105470130Y-37226420D01*
X105510500Y-37023465D01*
X105510500Y-36816581D01*
X105950000Y-36816581D01*
X105950000Y-37023418D01*
X105990349Y-37226272D01*
X106069501Y-37417360D01*
X106069508Y-37417374D01*
X106184405Y-37589329D01*
X106186826Y-37591750D01*
X106582210Y-37196365D01*
X106599901Y-37227007D01*
X106692993Y-37320099D01*
X106723632Y-37337788D01*
X106328249Y-37733173D01*
X106330670Y-37735594D01*
X106502625Y-37850491D01*
X106502639Y-37850498D01*
X106693727Y-37929650D01*
X106896581Y-37969999D01*
X106896586Y-37970000D01*
X107103414Y-37970000D01*
X107103418Y-37969999D01*
X107306272Y-37929650D01*
X107497360Y-37850498D01*
X107497366Y-37850495D01*
X107669333Y-37735591D01*
X107671750Y-37733173D01*
X107276366Y-37337789D01*
X107307007Y-37320099D01*
X107400099Y-37227007D01*
X107417789Y-37196366D01*
X107813173Y-37591750D01*
X107815591Y-37589333D01*
X107930495Y-37417366D01*
X107930498Y-37417360D01*
X108009650Y-37226272D01*
X108049999Y-37023418D01*
X108050000Y-37023413D01*
X108050000Y-36816586D01*
X108049999Y-36816581D01*
X108009650Y-36613727D01*
X107930498Y-36422639D01*
X107930491Y-36422625D01*
X107815594Y-36250670D01*
X107813173Y-36248249D01*
X107417788Y-36643632D01*
X107400099Y-36612993D01*
X107307007Y-36519901D01*
X107276365Y-36502210D01*
X107671750Y-36106826D01*
X107669329Y-36104405D01*
X107497374Y-35989508D01*
X107497360Y-35989501D01*
X107306272Y-35910349D01*
X107103418Y-35870000D01*
X106896581Y-35870000D01*
X106693727Y-35910349D01*
X106502639Y-35989501D01*
X106502630Y-35989505D01*
X106330665Y-36104410D01*
X106328248Y-36106825D01*
X106723633Y-36502210D01*
X106692993Y-36519901D01*
X106599901Y-36612993D01*
X106582210Y-36643633D01*
X106186825Y-36248248D01*
X106184410Y-36250665D01*
X106069505Y-36422630D01*
X106069501Y-36422639D01*
X105990349Y-36613727D01*
X105950000Y-36816581D01*
X105510500Y-36816581D01*
X105510500Y-36816535D01*
X105470130Y-36613580D01*
X105390941Y-36422402D01*
X105275977Y-36250345D01*
X105129655Y-36104023D01*
X104974721Y-36000500D01*
X104957597Y-35989058D01*
X104766418Y-35909869D01*
X104563467Y-35869500D01*
X104563465Y-35869500D01*
X104356535Y-35869500D01*
X104356532Y-35869500D01*
X104153581Y-35909869D01*
X103962402Y-35989058D01*
X103790348Y-36104020D01*
X103644020Y-36250348D01*
X103529058Y-36422402D01*
X103449869Y-36613581D01*
X103409500Y-36816532D01*
X101771453Y-36816532D01*
X101637785Y-36682864D01*
X101637782Y-36682861D01*
X101534443Y-36613812D01*
X101494498Y-36587121D01*
X101456619Y-36539071D01*
X101450500Y-36504806D01*
X101450500Y-34955193D01*
X101469407Y-34897002D01*
X101494498Y-34872878D01*
X101637782Y-34777139D01*
X101777139Y-34637782D01*
X101886632Y-34473914D01*
X101962051Y-34291835D01*
X101965095Y-34276532D01*
X103409500Y-34276532D01*
X103409500Y-34483467D01*
X103449869Y-34686418D01*
X103529058Y-34877597D01*
X103630956Y-35030099D01*
X103644023Y-35049655D01*
X103790345Y-35195977D01*
X103962402Y-35310941D01*
X104153580Y-35390130D01*
X104356535Y-35430500D01*
X104356536Y-35430500D01*
X104563464Y-35430500D01*
X104563465Y-35430500D01*
X104766420Y-35390130D01*
X104957598Y-35310941D01*
X105129655Y-35195977D01*
X105275977Y-35049655D01*
X105390941Y-34877598D01*
X105470130Y-34686420D01*
X105510500Y-34483465D01*
X105510500Y-34276535D01*
X105510499Y-34276532D01*
X105949500Y-34276532D01*
X105949500Y-34483467D01*
X105989869Y-34686418D01*
X106069058Y-34877597D01*
X106170956Y-35030099D01*
X106184023Y-35049655D01*
X106330345Y-35195977D01*
X106502402Y-35310941D01*
X106693580Y-35390130D01*
X106896535Y-35430500D01*
X106896536Y-35430500D01*
X107103464Y-35430500D01*
X107103465Y-35430500D01*
X107306420Y-35390130D01*
X107497598Y-35310941D01*
X107669655Y-35195977D01*
X107815977Y-35049655D01*
X107930941Y-34877598D01*
X108010130Y-34686420D01*
X108050500Y-34483465D01*
X108050500Y-34276535D01*
X108010130Y-34073580D01*
X107930941Y-33882402D01*
X107815977Y-33710345D01*
X107669655Y-33564023D01*
X107497598Y-33449059D01*
X107497599Y-33449059D01*
X107497597Y-33449058D01*
X107306418Y-33369869D01*
X107103467Y-33329500D01*
X107103465Y-33329500D01*
X106896535Y-33329500D01*
X106896532Y-33329500D01*
X106693581Y-33369869D01*
X106502402Y-33449058D01*
X106330348Y-33564020D01*
X106184020Y-33710348D01*
X106069058Y-33882402D01*
X105989869Y-34073581D01*
X105949500Y-34276532D01*
X105510499Y-34276532D01*
X105470130Y-34073580D01*
X105390941Y-33882402D01*
X105275977Y-33710345D01*
X105129655Y-33564023D01*
X104957598Y-33449059D01*
X104957599Y-33449059D01*
X104957597Y-33449058D01*
X104766418Y-33369869D01*
X104563467Y-33329500D01*
X104563465Y-33329500D01*
X104356535Y-33329500D01*
X104356532Y-33329500D01*
X104153581Y-33369869D01*
X103962402Y-33449058D01*
X103790348Y-33564020D01*
X103644020Y-33710348D01*
X103529058Y-33882402D01*
X103449869Y-34073581D01*
X103409500Y-34276532D01*
X101965095Y-34276532D01*
X102000500Y-34098541D01*
X102000500Y-33901459D01*
X101966880Y-33732443D01*
X101974072Y-33671684D01*
X101993971Y-33643130D01*
X103240497Y-32396605D01*
X103295013Y-32368829D01*
X103355445Y-32378400D01*
X103398710Y-32421665D01*
X103409500Y-32466610D01*
X103409500Y-32709746D01*
X103409501Y-32709758D01*
X103421132Y-32768227D01*
X103421134Y-32768233D01*
X103465445Y-32834548D01*
X103465448Y-32834552D01*
X103531769Y-32878867D01*
X103573335Y-32887135D01*
X103590241Y-32890498D01*
X103590246Y-32890498D01*
X103590252Y-32890500D01*
X103590253Y-32890500D01*
X105329747Y-32890500D01*
X105329748Y-32890500D01*
X105388231Y-32878867D01*
X105454552Y-32834552D01*
X105498867Y-32768231D01*
X105510500Y-32709748D01*
X105510500Y-31736532D01*
X105949500Y-31736532D01*
X105949500Y-31943467D01*
X105989869Y-32146418D01*
X106069058Y-32337597D01*
X106184020Y-32509651D01*
X106184023Y-32509655D01*
X106330345Y-32655977D01*
X106502402Y-32770941D01*
X106693580Y-32850130D01*
X106896535Y-32890500D01*
X106896536Y-32890500D01*
X107103464Y-32890500D01*
X107103465Y-32890500D01*
X107306420Y-32850130D01*
X107497598Y-32770941D01*
X107669655Y-32655977D01*
X107815977Y-32509655D01*
X107930941Y-32337598D01*
X108010130Y-32146420D01*
X108050500Y-31943465D01*
X108050500Y-31736535D01*
X108010130Y-31533580D01*
X107930941Y-31342402D01*
X107815977Y-31170345D01*
X107669655Y-31024023D01*
X107589182Y-30970253D01*
X107497597Y-30909058D01*
X107306418Y-30829869D01*
X107103467Y-30789500D01*
X107103465Y-30789500D01*
X106896535Y-30789500D01*
X106896532Y-30789500D01*
X106693581Y-30829869D01*
X106502402Y-30909058D01*
X106330348Y-31024020D01*
X106184020Y-31170348D01*
X106069058Y-31342402D01*
X105989869Y-31533581D01*
X105949500Y-31736532D01*
X105510500Y-31736532D01*
X105510500Y-30970252D01*
X105498867Y-30911769D01*
X105454552Y-30845448D01*
X105454548Y-30845445D01*
X105388233Y-30801134D01*
X105388231Y-30801133D01*
X105388228Y-30801132D01*
X105388227Y-30801132D01*
X105329758Y-30789501D01*
X105329748Y-30789500D01*
X103590252Y-30789500D01*
X103590251Y-30789500D01*
X103590241Y-30789501D01*
X103531772Y-30801132D01*
X103531766Y-30801134D01*
X103465451Y-30845445D01*
X103465445Y-30845451D01*
X103421134Y-30911766D01*
X103421132Y-30911772D01*
X103409501Y-30970241D01*
X103409500Y-30970253D01*
X103409500Y-31290500D01*
X103390593Y-31348691D01*
X103341093Y-31384655D01*
X103310500Y-31389500D01*
X103100691Y-31389500D01*
X103030567Y-31408289D01*
X102986109Y-31420202D01*
X102952265Y-31439743D01*
X102883388Y-31479509D01*
X101356870Y-33006025D01*
X101302353Y-33033802D01*
X101267553Y-33033119D01*
X101203399Y-33020357D01*
X101098543Y-32999500D01*
X101098541Y-32999500D01*
X100901459Y-32999500D01*
X100901456Y-32999500D01*
X100732446Y-33033119D01*
X100671685Y-33025927D01*
X100643128Y-33006025D01*
X100346849Y-32709746D01*
X99386614Y-31749511D01*
X99386611Y-31749509D01*
X99386609Y-31749507D01*
X99283890Y-31690202D01*
X99283886Y-31690200D01*
X99259673Y-31683712D01*
X99259673Y-31683713D01*
X99169309Y-31659500D01*
X99169307Y-31659500D01*
X91770193Y-31659500D01*
X91754271Y-31654326D01*
X91737534Y-31653958D01*
X91726257Y-31645224D01*
X91712002Y-31640593D01*
X91688838Y-31616912D01*
X91688353Y-31616212D01*
X91592139Y-31472218D01*
X91521427Y-31401506D01*
X100000000Y-31401506D01*
X100000000Y-31598493D01*
X100038429Y-31791688D01*
X100038429Y-31791690D01*
X100113809Y-31973675D01*
X100113812Y-31973681D01*
X100222392Y-32136182D01*
X100655414Y-31703160D01*
X100679920Y-31745606D01*
X100754394Y-31820080D01*
X100796836Y-31844584D01*
X100363816Y-32277605D01*
X100526324Y-32386190D01*
X100708310Y-32461570D01*
X100901506Y-32499999D01*
X100901510Y-32500000D01*
X101098490Y-32500000D01*
X101098493Y-32499999D01*
X101291688Y-32461570D01*
X101291690Y-32461570D01*
X101473675Y-32386190D01*
X101636182Y-32277605D01*
X101203161Y-31844584D01*
X101245606Y-31820080D01*
X101320080Y-31745606D01*
X101344584Y-31703161D01*
X101777605Y-32136182D01*
X101886190Y-31973675D01*
X101961570Y-31791690D01*
X101961570Y-31791688D01*
X101999999Y-31598493D01*
X102000000Y-31598490D01*
X102000000Y-31401509D01*
X101999999Y-31401506D01*
X101961570Y-31208311D01*
X101961570Y-31208309D01*
X101886190Y-31026324D01*
X101777605Y-30863816D01*
X101344584Y-31296836D01*
X101320080Y-31254394D01*
X101245606Y-31179920D01*
X101203160Y-31155414D01*
X101636183Y-30722392D01*
X101473681Y-30613812D01*
X101473675Y-30613809D01*
X101291689Y-30538429D01*
X101098493Y-30500000D01*
X100901506Y-30500000D01*
X100708311Y-30538429D01*
X100708309Y-30538429D01*
X100526326Y-30613808D01*
X100526314Y-30613814D01*
X100363816Y-30722393D01*
X100796838Y-31155415D01*
X100754394Y-31179920D01*
X100679920Y-31254394D01*
X100655415Y-31296838D01*
X100222393Y-30863816D01*
X100113814Y-31026314D01*
X100113808Y-31026326D01*
X100038429Y-31208309D01*
X100038429Y-31208311D01*
X100000000Y-31401506D01*
X91521427Y-31401506D01*
X91452782Y-31332861D01*
X91328770Y-31249999D01*
X91288913Y-31223367D01*
X91106835Y-31147949D01*
X90913543Y-31109500D01*
X90913541Y-31109500D01*
X90716459Y-31109500D01*
X90716456Y-31109500D01*
X90523165Y-31147949D01*
X90523163Y-31147949D01*
X90341086Y-31223367D01*
X90177218Y-31332861D01*
X90177214Y-31332864D01*
X90037864Y-31472214D01*
X90037861Y-31472218D01*
X89928367Y-31636086D01*
X89852949Y-31818163D01*
X89852949Y-31818165D01*
X89814500Y-32011456D01*
X84195500Y-32011456D01*
X84195500Y-31505727D01*
X84195499Y-31505725D01*
X84194550Y-31495606D01*
X84192646Y-31475301D01*
X84147793Y-31347118D01*
X84146677Y-31345606D01*
X84067154Y-31237855D01*
X84067152Y-31237853D01*
X84067150Y-31237850D01*
X84067146Y-31237847D01*
X84067144Y-31237845D01*
X83957883Y-31157207D01*
X83829703Y-31112355D01*
X83829694Y-31112353D01*
X83799274Y-31109500D01*
X83799266Y-31109500D01*
X82590734Y-31109500D01*
X82590725Y-31109500D01*
X82560305Y-31112353D01*
X82560296Y-31112355D01*
X82432116Y-31157207D01*
X82322855Y-31237845D01*
X82322845Y-31237855D01*
X82242207Y-31347116D01*
X82197355Y-31475296D01*
X82197353Y-31475305D01*
X82194500Y-31505725D01*
X79969234Y-31505725D01*
X80000500Y-31348541D01*
X80000500Y-31151459D01*
X79962051Y-30958165D01*
X79915364Y-30845451D01*
X79895367Y-30797173D01*
X79891148Y-30786989D01*
X79886632Y-30776086D01*
X79777139Y-30612218D01*
X79637782Y-30472861D01*
X79528288Y-30399699D01*
X79473913Y-30363367D01*
X79291835Y-30287949D01*
X79098543Y-30249500D01*
X79098541Y-30249500D01*
X78901459Y-30249500D01*
X78901456Y-30249500D01*
X78708165Y-30287949D01*
X78708163Y-30287949D01*
X78526086Y-30363367D01*
X78362218Y-30472861D01*
X78362214Y-30472864D01*
X78222864Y-30612214D01*
X78222861Y-30612218D01*
X78113367Y-30776086D01*
X78037949Y-30958163D01*
X78037949Y-30958165D01*
X77999500Y-31151456D01*
X77499989Y-31151456D01*
X77461570Y-30958311D01*
X77461570Y-30958309D01*
X77386190Y-30776324D01*
X77277605Y-30613816D01*
X76844584Y-31046836D01*
X76820080Y-31004394D01*
X76745606Y-30929920D01*
X76703160Y-30905414D01*
X77136183Y-30472392D01*
X76973681Y-30363812D01*
X76973675Y-30363809D01*
X76791689Y-30288429D01*
X76598493Y-30250000D01*
X76401506Y-30250000D01*
X76208311Y-30288429D01*
X76208309Y-30288429D01*
X76026326Y-30363808D01*
X76026314Y-30363814D01*
X75863816Y-30472393D01*
X76296838Y-30905415D01*
X76254394Y-30929920D01*
X76179920Y-31004394D01*
X76155415Y-31046838D01*
X75722393Y-30613816D01*
X75681815Y-30674545D01*
X75680220Y-30675801D01*
X75679593Y-30677734D01*
X75656327Y-30694637D01*
X75633765Y-30712424D01*
X75631736Y-30712503D01*
X75630093Y-30713698D01*
X75601338Y-30713698D01*
X75572627Y-30714826D01*
X75570939Y-30713698D01*
X75568907Y-30713698D01*
X75545646Y-30696797D01*
X75521753Y-30680833D01*
X75521050Y-30678927D01*
X75519407Y-30677734D01*
X75510525Y-30650398D01*
X75500576Y-30623429D01*
X75500500Y-30619543D01*
X75500500Y-30099500D01*
X75519407Y-30041309D01*
X75568907Y-30005345D01*
X75599500Y-30000500D01*
X108400500Y-30000500D01*
X108458691Y-30019407D01*
G37*
G04 #@! TD.AperFunction*
G04 #@! TA.AperFunction,Conductor*
G36*
X95923245Y-49022407D02*
G01*
X95959209Y-49071907D01*
X95959209Y-49133093D01*
X95923245Y-49182593D01*
X95920056Y-49184815D01*
X95863816Y-49222393D01*
X96296838Y-49655415D01*
X96254394Y-49679920D01*
X96179920Y-49754394D01*
X96155415Y-49796838D01*
X95722393Y-49363816D01*
X95613814Y-49526314D01*
X95613808Y-49526326D01*
X95538429Y-49708309D01*
X95538429Y-49708311D01*
X95500000Y-49901506D01*
X95500000Y-50098493D01*
X95538429Y-50291688D01*
X95538429Y-50291690D01*
X95613809Y-50473675D01*
X95613812Y-50473681D01*
X95722392Y-50636182D01*
X96155414Y-50203160D01*
X96179920Y-50245606D01*
X96254394Y-50320080D01*
X96296836Y-50344584D01*
X95863816Y-50777605D01*
X96026324Y-50886190D01*
X96208310Y-50961570D01*
X96401506Y-50999999D01*
X96401510Y-51000000D01*
X96598490Y-51000000D01*
X96598493Y-50999999D01*
X96791688Y-50961570D01*
X96791690Y-50961570D01*
X96973675Y-50886190D01*
X97136182Y-50777605D01*
X96703161Y-50344584D01*
X96745606Y-50320080D01*
X96820080Y-50245606D01*
X96844584Y-50203161D01*
X97277605Y-50636182D01*
X97386190Y-50473675D01*
X97461570Y-50291690D01*
X97461570Y-50291688D01*
X97499999Y-50098493D01*
X97500000Y-50098490D01*
X97500000Y-49901509D01*
X97499999Y-49901506D01*
X97461570Y-49708311D01*
X97461570Y-49708309D01*
X97386190Y-49526324D01*
X97277605Y-49363816D01*
X96844584Y-49796836D01*
X96820080Y-49754394D01*
X96745606Y-49679920D01*
X96703160Y-49655414D01*
X97136182Y-49222393D01*
X97079943Y-49184815D01*
X97042064Y-49136766D01*
X97039662Y-49075627D01*
X97073655Y-49024754D01*
X97131058Y-49003576D01*
X97134945Y-49003500D01*
X99037521Y-49003500D01*
X99095712Y-49022407D01*
X99107525Y-49032496D01*
X100169504Y-50094475D01*
X100197281Y-50148992D01*
X100198500Y-50164479D01*
X100198500Y-51012313D01*
X100179593Y-51070504D01*
X100130093Y-51106468D01*
X100068907Y-51106468D01*
X100019407Y-51070504D01*
X100017185Y-51067315D01*
X99949464Y-50965964D01*
X99824034Y-50840534D01*
X99676544Y-50741984D01*
X99512666Y-50674105D01*
X99338693Y-50639499D01*
X99338691Y-50639499D01*
X99161309Y-50639499D01*
X99161306Y-50639499D01*
X98987334Y-50674105D01*
X98987332Y-50674105D01*
X98823455Y-50741984D01*
X98823454Y-50741984D01*
X98675965Y-50840534D01*
X98550535Y-50965964D01*
X98451985Y-51113453D01*
X98451985Y-51113454D01*
X98384106Y-51277331D01*
X98384106Y-51277333D01*
X98349500Y-51451305D01*
X98349500Y-51628692D01*
X98371733Y-51740460D01*
X98383675Y-51800500D01*
X98384106Y-51802664D01*
X98384106Y-51802666D01*
X98411001Y-51867597D01*
X98415801Y-51928594D01*
X98389541Y-51975485D01*
X98194525Y-52170503D01*
X98140009Y-52198281D01*
X98124521Y-52199500D01*
X94460435Y-52199500D01*
X94384012Y-52219978D01*
X94323131Y-52255128D01*
X94323130Y-52255128D01*
X94315491Y-52259538D01*
X94315489Y-52259539D01*
X93550291Y-53024736D01*
X93495775Y-53052513D01*
X93442402Y-53046196D01*
X93306418Y-52989869D01*
X93103467Y-52949500D01*
X93103465Y-52949500D01*
X92896535Y-52949500D01*
X92896532Y-52949500D01*
X92693581Y-52989869D01*
X92502402Y-53069058D01*
X92330348Y-53184020D01*
X92184020Y-53330348D01*
X92069058Y-53502402D01*
X91989869Y-53693581D01*
X91949500Y-53896532D01*
X91949500Y-54103467D01*
X91989869Y-54306418D01*
X92069058Y-54497597D01*
X92069059Y-54497598D01*
X92184023Y-54669655D01*
X92330345Y-54815977D01*
X92330348Y-54815979D01*
X92333648Y-54818184D01*
X92371528Y-54866233D01*
X92373930Y-54927372D01*
X92339938Y-54978246D01*
X92282535Y-54999424D01*
X92278647Y-54999500D01*
X91181354Y-54999500D01*
X91123163Y-54980593D01*
X91087199Y-54931093D01*
X91087199Y-54869907D01*
X91123163Y-54820407D01*
X91126353Y-54818184D01*
X91126455Y-54818115D01*
X91129656Y-54815977D01*
X91275978Y-54669655D01*
X91390942Y-54497598D01*
X91470131Y-54306420D01*
X91510501Y-54103465D01*
X91510501Y-53896535D01*
X91470131Y-53693580D01*
X91390942Y-53502402D01*
X91390940Y-53502400D01*
X91390938Y-53502394D01*
X91333445Y-53416351D01*
X91316836Y-53357463D01*
X91338013Y-53300059D01*
X91345747Y-53291354D01*
X93643130Y-50993972D01*
X93697645Y-50966197D01*
X93732441Y-50966879D01*
X93901459Y-51000500D01*
X93901460Y-51000500D01*
X94098540Y-51000500D01*
X94098541Y-51000500D01*
X94291835Y-50962051D01*
X94473914Y-50886632D01*
X94637782Y-50777139D01*
X94777139Y-50637782D01*
X94886632Y-50473914D01*
X94962051Y-50291835D01*
X95000500Y-50098541D01*
X95000500Y-49901459D01*
X94962051Y-49708165D01*
X94886632Y-49526086D01*
X94777139Y-49362218D01*
X94637782Y-49222861D01*
X94580841Y-49184814D01*
X94542963Y-49136765D01*
X94540561Y-49075627D01*
X94574554Y-49024753D01*
X94631958Y-49003576D01*
X94635844Y-49003500D01*
X95865054Y-49003500D01*
X95923245Y-49022407D01*
G37*
G04 #@! TD.AperFunction*
G04 #@! TA.AperFunction,Conductor*
G36*
X89469504Y-47986524D02*
G01*
X89473538Y-47990558D01*
X89473540Y-47990561D01*
X90118490Y-48635511D01*
X90118489Y-48635511D01*
X90174439Y-48691460D01*
X90242957Y-48731019D01*
X90242961Y-48731021D01*
X90319385Y-48751499D01*
X90319387Y-48751500D01*
X90452749Y-48751500D01*
X90510940Y-48770407D01*
X90546904Y-48819907D01*
X90546904Y-48881093D01*
X90510940Y-48930593D01*
X90490634Y-48941964D01*
X90341326Y-49003808D01*
X90341314Y-49003814D01*
X90178816Y-49112393D01*
X90611838Y-49545415D01*
X90569394Y-49569920D01*
X90494920Y-49644394D01*
X90470415Y-49686837D01*
X90037393Y-49253816D01*
X89928814Y-49416314D01*
X89928808Y-49416326D01*
X89853429Y-49598309D01*
X89853429Y-49598311D01*
X89815000Y-49791506D01*
X89815000Y-49988493D01*
X89851032Y-50169641D01*
X89843840Y-50230403D01*
X89802307Y-50275332D01*
X89742297Y-50287269D01*
X89686732Y-50261653D01*
X89683930Y-50258959D01*
X89329496Y-49904525D01*
X89301719Y-49850008D01*
X89300500Y-49834521D01*
X89300500Y-48056528D01*
X89319407Y-47998337D01*
X89368907Y-47962373D01*
X89430093Y-47962373D01*
X89469504Y-47986524D01*
G37*
G04 #@! TD.AperFunction*
G04 #@! TA.AperFunction,Conductor*
G36*
X92442712Y-48220407D02*
G01*
X92478676Y-48269907D01*
X92478676Y-48331093D01*
X92454525Y-48370504D01*
X91731489Y-49093540D01*
X91731488Y-49093539D01*
X91675540Y-49149487D01*
X91646000Y-49200653D01*
X91624772Y-49219766D01*
X91625714Y-49220708D01*
X91159584Y-49686836D01*
X91135080Y-49644394D01*
X91060606Y-49569920D01*
X91018160Y-49545414D01*
X91451183Y-49112392D01*
X91288681Y-49003812D01*
X91288675Y-49003809D01*
X91139366Y-48941964D01*
X91092840Y-48902228D01*
X91078556Y-48842733D01*
X91101971Y-48786205D01*
X91154140Y-48754235D01*
X91177251Y-48751500D01*
X91310613Y-48751500D01*
X91310613Y-48751499D01*
X91387039Y-48731021D01*
X91455561Y-48691460D01*
X91511510Y-48635511D01*
X91916525Y-48230496D01*
X91971042Y-48202719D01*
X91986529Y-48201500D01*
X92384521Y-48201500D01*
X92442712Y-48220407D01*
G37*
G04 #@! TD.AperFunction*
G04 #@! TD*
M02*
