M48
; DRILL file {KiCad 9.0.6} date 2025-12-06T20:31:00+0100
; FORMAT={-:-/ absolute / metric / decimal}
; #@! TF.CreationDate,2025-12-06T20:31:00+01:00
; #@! TF.GenerationSoftware,Kicad,Pcbnew,9.0.6
; #@! TF.FileFunction,Plated,1,2,PTH
FMAT,2
METRIC
; #@! TA.AperFunction,Plated,PTH,ViaDrill
T1C0.300
; #@! TA.AperFunction,Plated,PTH,ComponentDrill
T2C0.700
; #@! TA.AperFunction,Plated,PTH,ComponentDrill
T3C0.800
; #@! TA.AperFunction,Plated,PTH,ComponentDrill
T4C1.000
%
G90
G05
T1
X97.75Y-53.75
X99.75Y-53.75
T2
X99.25Y-46.46
X99.25Y-51.54
X101.5Y-46.46
X101.5Y-51.54
T3
X76.5Y-31.25
X79.0Y-31.25
X83.195Y-32.11
X83.195Y-34.65
X83.195Y-37.19
X83.195Y-39.73
X83.195Y-42.27
X83.195Y-44.81
X83.195Y-47.35
X83.195Y-49.89
X90.815Y-32.11
X90.815Y-34.65
X90.815Y-37.19
X90.815Y-39.73
X90.815Y-42.27
X90.815Y-44.81
X90.815Y-47.35
X90.815Y-49.89
X94.0Y-35.0
X94.0Y-37.5
X94.0Y-50.0
X96.5Y-50.0
X97.0Y-35.0
X97.0Y-37.5
X97.0Y-40.5
X97.0Y-43.0
X101.0Y-31.5
X101.0Y-34.0
X101.0Y-37.46
X101.0Y-40.0
T4
X76.75Y-34.63
X76.75Y-37.17
X76.75Y-39.71
X76.75Y-42.25
X76.75Y-44.79
X76.75Y-47.33
X76.75Y-49.87
X79.29Y-34.63
X79.29Y-37.17
X79.29Y-39.71
X79.29Y-42.25
X79.29Y-44.79
X79.29Y-47.33
X79.29Y-49.87
X87.92Y-54.0
X90.46Y-54.0
X93.0Y-54.0
X95.54Y-54.0
X104.46Y-31.84
X104.46Y-34.38
X104.46Y-36.92
X104.46Y-39.46
X104.46Y-42.0
X104.46Y-44.54
X104.46Y-47.08
X104.46Y-49.62
X104.46Y-52.16
X104.46Y-54.7
X104.46Y-57.24
X104.46Y-59.78
X107.0Y-31.84
X107.0Y-34.38
X107.0Y-36.92
X107.0Y-39.46
X107.0Y-42.0
X107.0Y-44.54
X107.0Y-47.08
X107.0Y-49.62
X107.0Y-52.16
X107.0Y-54.7
X107.0Y-57.24
X107.0Y-59.78
M30
