G04 #@! TF.GenerationSoftware,KiCad,Pcbnew,9.0.6*
G04 #@! TF.CreationDate,2025-12-06T20:31:00+01:00*
G04 #@! TF.ProjectId,TeStConfAlkolhol,54655374-436f-46e6-9641-6c6b6f6c686f,rev?*
G04 #@! TF.SameCoordinates,Original*
G04 #@! TF.FileFunction,Legend,Top*
G04 #@! TF.FilePolarity,Positive*
%FSLAX46Y46*%
G04 Gerber Fmt 4.6, Leading zero omitted, Abs format (unit mm)*
G04 Created by KiCad (PCBNEW 9.0.6) date 2025-12-06 20:31:00*
%MOMM*%
%LPD*%
G01*
G04 APERTURE LIST*
G04 Aperture macros list*
%AMRoundRect*
0 Rectangle with rounded corners*
0 $1 Rounding radius*
0 $2 $3 $4 $5 $6 $7 $8 $9 X,Y pos of 4 corners*
0 Add a 4 corners polygon primitive as box body*
4,1,4,$2,$3,$4,$5,$6,$7,$8,$9,$2,$3,0*
0 Add four circle primitives for the rounded corners*
1,1,$1+$1,$2,$3*
1,1,$1+$1,$4,$5*
1,1,$1+$1,$6,$7*
1,1,$1+$1,$8,$9*
0 Add four rect primitives between the rounded corners*
20,1,$1+$1,$2,$3,$4,$5,0*
20,1,$1+$1,$4,$5,$6,$7,0*
20,1,$1+$1,$6,$7,$8,$9,0*
20,1,$1+$1,$8,$9,$2,$3,0*%
G04 Aperture macros list end*
%ADD10C,0.100000*%
%ADD11C,0.150000*%
%ADD12C,0.120000*%
%ADD13R,1.700000X1.700000*%
%ADD14C,1.700000*%
%ADD15RoundRect,0.250000X-0.550000X-0.550000X0.550000X-0.550000X0.550000X0.550000X-0.550000X0.550000X0*%
%ADD16C,1.600000*%
%ADD17C,1.400000*%
G04 APERTURE END LIST*
D10*
X76161027Y-53122419D02*
X76732455Y-53122419D01*
X76446741Y-54122419D02*
X76446741Y-53122419D01*
X77446741Y-54074800D02*
X77351503Y-54122419D01*
X77351503Y-54122419D02*
X77161027Y-54122419D01*
X77161027Y-54122419D02*
X77065789Y-54074800D01*
X77065789Y-54074800D02*
X77018170Y-53979561D01*
X77018170Y-53979561D02*
X77018170Y-53598609D01*
X77018170Y-53598609D02*
X77065789Y-53503371D01*
X77065789Y-53503371D02*
X77161027Y-53455752D01*
X77161027Y-53455752D02*
X77351503Y-53455752D01*
X77351503Y-53455752D02*
X77446741Y-53503371D01*
X77446741Y-53503371D02*
X77494360Y-53598609D01*
X77494360Y-53598609D02*
X77494360Y-53693847D01*
X77494360Y-53693847D02*
X77018170Y-53789085D01*
X77875313Y-54074800D02*
X78018170Y-54122419D01*
X78018170Y-54122419D02*
X78256265Y-54122419D01*
X78256265Y-54122419D02*
X78351503Y-54074800D01*
X78351503Y-54074800D02*
X78399122Y-54027180D01*
X78399122Y-54027180D02*
X78446741Y-53931942D01*
X78446741Y-53931942D02*
X78446741Y-53836704D01*
X78446741Y-53836704D02*
X78399122Y-53741466D01*
X78399122Y-53741466D02*
X78351503Y-53693847D01*
X78351503Y-53693847D02*
X78256265Y-53646228D01*
X78256265Y-53646228D02*
X78065789Y-53598609D01*
X78065789Y-53598609D02*
X77970551Y-53550990D01*
X77970551Y-53550990D02*
X77922932Y-53503371D01*
X77922932Y-53503371D02*
X77875313Y-53408133D01*
X77875313Y-53408133D02*
X77875313Y-53312895D01*
X77875313Y-53312895D02*
X77922932Y-53217657D01*
X77922932Y-53217657D02*
X77970551Y-53170038D01*
X77970551Y-53170038D02*
X78065789Y-53122419D01*
X78065789Y-53122419D02*
X78303884Y-53122419D01*
X78303884Y-53122419D02*
X78446741Y-53170038D01*
X78732456Y-53455752D02*
X79113408Y-53455752D01*
X78875313Y-53122419D02*
X78875313Y-53979561D01*
X78875313Y-53979561D02*
X78922932Y-54074800D01*
X78922932Y-54074800D02*
X79018170Y-54122419D01*
X79018170Y-54122419D02*
X79113408Y-54122419D01*
X80018170Y-54027180D02*
X79970551Y-54074800D01*
X79970551Y-54074800D02*
X79827694Y-54122419D01*
X79827694Y-54122419D02*
X79732456Y-54122419D01*
X79732456Y-54122419D02*
X79589599Y-54074800D01*
X79589599Y-54074800D02*
X79494361Y-53979561D01*
X79494361Y-53979561D02*
X79446742Y-53884323D01*
X79446742Y-53884323D02*
X79399123Y-53693847D01*
X79399123Y-53693847D02*
X79399123Y-53550990D01*
X79399123Y-53550990D02*
X79446742Y-53360514D01*
X79446742Y-53360514D02*
X79494361Y-53265276D01*
X79494361Y-53265276D02*
X79589599Y-53170038D01*
X79589599Y-53170038D02*
X79732456Y-53122419D01*
X79732456Y-53122419D02*
X79827694Y-53122419D01*
X79827694Y-53122419D02*
X79970551Y-53170038D01*
X79970551Y-53170038D02*
X80018170Y-53217657D01*
X80589599Y-54122419D02*
X80494361Y-54074800D01*
X80494361Y-54074800D02*
X80446742Y-54027180D01*
X80446742Y-54027180D02*
X80399123Y-53931942D01*
X80399123Y-53931942D02*
X80399123Y-53646228D01*
X80399123Y-53646228D02*
X80446742Y-53550990D01*
X80446742Y-53550990D02*
X80494361Y-53503371D01*
X80494361Y-53503371D02*
X80589599Y-53455752D01*
X80589599Y-53455752D02*
X80732456Y-53455752D01*
X80732456Y-53455752D02*
X80827694Y-53503371D01*
X80827694Y-53503371D02*
X80875313Y-53550990D01*
X80875313Y-53550990D02*
X80922932Y-53646228D01*
X80922932Y-53646228D02*
X80922932Y-53931942D01*
X80922932Y-53931942D02*
X80875313Y-54027180D01*
X80875313Y-54027180D02*
X80827694Y-54074800D01*
X80827694Y-54074800D02*
X80732456Y-54122419D01*
X80732456Y-54122419D02*
X80589599Y-54122419D01*
X81351504Y-53455752D02*
X81351504Y-54122419D01*
X81351504Y-53550990D02*
X81399123Y-53503371D01*
X81399123Y-53503371D02*
X81494361Y-53455752D01*
X81494361Y-53455752D02*
X81637218Y-53455752D01*
X81637218Y-53455752D02*
X81732456Y-53503371D01*
X81732456Y-53503371D02*
X81780075Y-53598609D01*
X81780075Y-53598609D02*
X81780075Y-54122419D01*
X82113409Y-53455752D02*
X82494361Y-53455752D01*
X82256266Y-54122419D02*
X82256266Y-53265276D01*
X82256266Y-53265276D02*
X82303885Y-53170038D01*
X82303885Y-53170038D02*
X82399123Y-53122419D01*
X82399123Y-53122419D02*
X82494361Y-53122419D01*
D11*
X77686666Y-31314819D02*
X77686666Y-32029104D01*
X77686666Y-32029104D02*
X77639047Y-32171961D01*
X77639047Y-32171961D02*
X77543809Y-32267200D01*
X77543809Y-32267200D02*
X77400952Y-32314819D01*
X77400952Y-32314819D02*
X77305714Y-32314819D01*
X78591428Y-31648152D02*
X78591428Y-32314819D01*
X78353333Y-31267200D02*
X78115238Y-31981485D01*
X78115238Y-31981485D02*
X78734285Y-31981485D01*
X84604820Y-58713333D02*
X85319105Y-58713333D01*
X85319105Y-58713333D02*
X85461962Y-58760952D01*
X85461962Y-58760952D02*
X85557201Y-58856190D01*
X85557201Y-58856190D02*
X85604820Y-58999047D01*
X85604820Y-58999047D02*
X85604820Y-59094285D01*
X85604820Y-57713333D02*
X85604820Y-58284761D01*
X85604820Y-57999047D02*
X84604820Y-57999047D01*
X84604820Y-57999047D02*
X84747677Y-58094285D01*
X84747677Y-58094285D02*
X84842915Y-58189523D01*
X84842915Y-58189523D02*
X84890534Y-58284761D01*
X92238095Y-30204819D02*
X92238095Y-31014342D01*
X92238095Y-31014342D02*
X92285714Y-31109580D01*
X92285714Y-31109580D02*
X92333333Y-31157200D01*
X92333333Y-31157200D02*
X92428571Y-31204819D01*
X92428571Y-31204819D02*
X92619047Y-31204819D01*
X92619047Y-31204819D02*
X92714285Y-31157200D01*
X92714285Y-31157200D02*
X92761904Y-31109580D01*
X92761904Y-31109580D02*
X92809523Y-31014342D01*
X92809523Y-31014342D02*
X92809523Y-30204819D01*
X93809523Y-31204819D02*
X93238095Y-31204819D01*
X93523809Y-31204819D02*
X93523809Y-30204819D01*
X93523809Y-30204819D02*
X93428571Y-30347676D01*
X93428571Y-30347676D02*
X93333333Y-30442914D01*
X93333333Y-30442914D02*
X93238095Y-30490533D01*
X101954819Y-53916666D02*
X101478628Y-54249999D01*
X101954819Y-54488094D02*
X100954819Y-54488094D01*
X100954819Y-54488094D02*
X100954819Y-54107142D01*
X100954819Y-54107142D02*
X101002438Y-54011904D01*
X101002438Y-54011904D02*
X101050057Y-53964285D01*
X101050057Y-53964285D02*
X101145295Y-53916666D01*
X101145295Y-53916666D02*
X101288152Y-53916666D01*
X101288152Y-53916666D02*
X101383390Y-53964285D01*
X101383390Y-53964285D02*
X101431009Y-54011904D01*
X101431009Y-54011904D02*
X101478628Y-54107142D01*
X101478628Y-54107142D02*
X101478628Y-54488094D01*
X101050057Y-53535713D02*
X101002438Y-53488094D01*
X101002438Y-53488094D02*
X100954819Y-53392856D01*
X100954819Y-53392856D02*
X100954819Y-53154761D01*
X100954819Y-53154761D02*
X101002438Y-53059523D01*
X101002438Y-53059523D02*
X101050057Y-53011904D01*
X101050057Y-53011904D02*
X101145295Y-52964285D01*
X101145295Y-52964285D02*
X101240533Y-52964285D01*
X101240533Y-52964285D02*
X101383390Y-53011904D01*
X101383390Y-53011904D02*
X101954819Y-53583332D01*
X101954819Y-53583332D02*
X101954819Y-52964285D01*
X99704819Y-53666666D02*
X99228628Y-53999999D01*
X99704819Y-54238094D02*
X98704819Y-54238094D01*
X98704819Y-54238094D02*
X98704819Y-53857142D01*
X98704819Y-53857142D02*
X98752438Y-53761904D01*
X98752438Y-53761904D02*
X98800057Y-53714285D01*
X98800057Y-53714285D02*
X98895295Y-53666666D01*
X98895295Y-53666666D02*
X99038152Y-53666666D01*
X99038152Y-53666666D02*
X99133390Y-53714285D01*
X99133390Y-53714285D02*
X99181009Y-53761904D01*
X99181009Y-53761904D02*
X99228628Y-53857142D01*
X99228628Y-53857142D02*
X99228628Y-54238094D01*
X99704819Y-52714285D02*
X99704819Y-53285713D01*
X99704819Y-52999999D02*
X98704819Y-52999999D01*
X98704819Y-52999999D02*
X98847676Y-53095237D01*
X98847676Y-53095237D02*
X98942914Y-53190475D01*
X98942914Y-53190475D02*
X98990533Y-53285713D01*
X101454819Y-41916666D02*
X101454819Y-42392856D01*
X101454819Y-42392856D02*
X100454819Y-42392856D01*
X101454819Y-41059523D02*
X101454819Y-41630951D01*
X101454819Y-41345237D02*
X100454819Y-41345237D01*
X100454819Y-41345237D02*
X100597676Y-41440475D01*
X100597676Y-41440475D02*
X100692914Y-41535713D01*
X100692914Y-41535713D02*
X100740533Y-41630951D01*
X95333333Y-48109580D02*
X95285714Y-48157200D01*
X95285714Y-48157200D02*
X95142857Y-48204819D01*
X95142857Y-48204819D02*
X95047619Y-48204819D01*
X95047619Y-48204819D02*
X94904762Y-48157200D01*
X94904762Y-48157200D02*
X94809524Y-48061961D01*
X94809524Y-48061961D02*
X94761905Y-47966723D01*
X94761905Y-47966723D02*
X94714286Y-47776247D01*
X94714286Y-47776247D02*
X94714286Y-47633390D01*
X94714286Y-47633390D02*
X94761905Y-47442914D01*
X94761905Y-47442914D02*
X94809524Y-47347676D01*
X94809524Y-47347676D02*
X94904762Y-47252438D01*
X94904762Y-47252438D02*
X95047619Y-47204819D01*
X95047619Y-47204819D02*
X95142857Y-47204819D01*
X95142857Y-47204819D02*
X95285714Y-47252438D01*
X95285714Y-47252438D02*
X95333333Y-47300057D01*
X96190476Y-47204819D02*
X96000000Y-47204819D01*
X96000000Y-47204819D02*
X95904762Y-47252438D01*
X95904762Y-47252438D02*
X95857143Y-47300057D01*
X95857143Y-47300057D02*
X95761905Y-47442914D01*
X95761905Y-47442914D02*
X95714286Y-47633390D01*
X95714286Y-47633390D02*
X95714286Y-48014342D01*
X95714286Y-48014342D02*
X95761905Y-48109580D01*
X95761905Y-48109580D02*
X95809524Y-48157200D01*
X95809524Y-48157200D02*
X95904762Y-48204819D01*
X95904762Y-48204819D02*
X96095238Y-48204819D01*
X96095238Y-48204819D02*
X96190476Y-48157200D01*
X96190476Y-48157200D02*
X96238095Y-48109580D01*
X96238095Y-48109580D02*
X96285714Y-48014342D01*
X96285714Y-48014342D02*
X96285714Y-47776247D01*
X96285714Y-47776247D02*
X96238095Y-47681009D01*
X96238095Y-47681009D02*
X96190476Y-47633390D01*
X96190476Y-47633390D02*
X96095238Y-47585771D01*
X96095238Y-47585771D02*
X95904762Y-47585771D01*
X95904762Y-47585771D02*
X95809524Y-47633390D01*
X95809524Y-47633390D02*
X95761905Y-47681009D01*
X95761905Y-47681009D02*
X95714286Y-47776247D01*
X81859580Y-31666666D02*
X81907200Y-31714285D01*
X81907200Y-31714285D02*
X81954819Y-31857142D01*
X81954819Y-31857142D02*
X81954819Y-31952380D01*
X81954819Y-31952380D02*
X81907200Y-32095237D01*
X81907200Y-32095237D02*
X81811961Y-32190475D01*
X81811961Y-32190475D02*
X81716723Y-32238094D01*
X81716723Y-32238094D02*
X81526247Y-32285713D01*
X81526247Y-32285713D02*
X81383390Y-32285713D01*
X81383390Y-32285713D02*
X81192914Y-32238094D01*
X81192914Y-32238094D02*
X81097676Y-32190475D01*
X81097676Y-32190475D02*
X81002438Y-32095237D01*
X81002438Y-32095237D02*
X80954819Y-31952380D01*
X80954819Y-31952380D02*
X80954819Y-31857142D01*
X80954819Y-31857142D02*
X81002438Y-31714285D01*
X81002438Y-31714285D02*
X81050057Y-31666666D01*
X80954819Y-30761904D02*
X80954819Y-31238094D01*
X80954819Y-31238094D02*
X81431009Y-31285713D01*
X81431009Y-31285713D02*
X81383390Y-31238094D01*
X81383390Y-31238094D02*
X81335771Y-31142856D01*
X81335771Y-31142856D02*
X81335771Y-30904761D01*
X81335771Y-30904761D02*
X81383390Y-30809523D01*
X81383390Y-30809523D02*
X81431009Y-30761904D01*
X81431009Y-30761904D02*
X81526247Y-30714285D01*
X81526247Y-30714285D02*
X81764342Y-30714285D01*
X81764342Y-30714285D02*
X81859580Y-30761904D01*
X81859580Y-30761904D02*
X81907200Y-30809523D01*
X81907200Y-30809523D02*
X81954819Y-30904761D01*
X81954819Y-30904761D02*
X81954819Y-31142856D01*
X81954819Y-31142856D02*
X81907200Y-31238094D01*
X81907200Y-31238094D02*
X81859580Y-31285713D01*
X99109580Y-31416666D02*
X99157200Y-31464285D01*
X99157200Y-31464285D02*
X99204819Y-31607142D01*
X99204819Y-31607142D02*
X99204819Y-31702380D01*
X99204819Y-31702380D02*
X99157200Y-31845237D01*
X99157200Y-31845237D02*
X99061961Y-31940475D01*
X99061961Y-31940475D02*
X98966723Y-31988094D01*
X98966723Y-31988094D02*
X98776247Y-32035713D01*
X98776247Y-32035713D02*
X98633390Y-32035713D01*
X98633390Y-32035713D02*
X98442914Y-31988094D01*
X98442914Y-31988094D02*
X98347676Y-31940475D01*
X98347676Y-31940475D02*
X98252438Y-31845237D01*
X98252438Y-31845237D02*
X98204819Y-31702380D01*
X98204819Y-31702380D02*
X98204819Y-31607142D01*
X98204819Y-31607142D02*
X98252438Y-31464285D01*
X98252438Y-31464285D02*
X98300057Y-31416666D01*
X98538152Y-30559523D02*
X99204819Y-30559523D01*
X98157200Y-30797618D02*
X98871485Y-31035713D01*
X98871485Y-31035713D02*
X98871485Y-30416666D01*
X94359580Y-32666666D02*
X94407200Y-32714285D01*
X94407200Y-32714285D02*
X94454819Y-32857142D01*
X94454819Y-32857142D02*
X94454819Y-32952380D01*
X94454819Y-32952380D02*
X94407200Y-33095237D01*
X94407200Y-33095237D02*
X94311961Y-33190475D01*
X94311961Y-33190475D02*
X94216723Y-33238094D01*
X94216723Y-33238094D02*
X94026247Y-33285713D01*
X94026247Y-33285713D02*
X93883390Y-33285713D01*
X93883390Y-33285713D02*
X93692914Y-33238094D01*
X93692914Y-33238094D02*
X93597676Y-33190475D01*
X93597676Y-33190475D02*
X93502438Y-33095237D01*
X93502438Y-33095237D02*
X93454819Y-32952380D01*
X93454819Y-32952380D02*
X93454819Y-32857142D01*
X93454819Y-32857142D02*
X93502438Y-32714285D01*
X93502438Y-32714285D02*
X93550057Y-32666666D01*
X93454819Y-32333332D02*
X93454819Y-31714285D01*
X93454819Y-31714285D02*
X93835771Y-32047618D01*
X93835771Y-32047618D02*
X93835771Y-31904761D01*
X93835771Y-31904761D02*
X93883390Y-31809523D01*
X93883390Y-31809523D02*
X93931009Y-31761904D01*
X93931009Y-31761904D02*
X94026247Y-31714285D01*
X94026247Y-31714285D02*
X94264342Y-31714285D01*
X94264342Y-31714285D02*
X94359580Y-31761904D01*
X94359580Y-31761904D02*
X94407200Y-31809523D01*
X94407200Y-31809523D02*
X94454819Y-31904761D01*
X94454819Y-31904761D02*
X94454819Y-32190475D01*
X94454819Y-32190475D02*
X94407200Y-32285713D01*
X94407200Y-32285713D02*
X94359580Y-32333332D01*
X97359580Y-32666666D02*
X97407200Y-32714285D01*
X97407200Y-32714285D02*
X97454819Y-32857142D01*
X97454819Y-32857142D02*
X97454819Y-32952380D01*
X97454819Y-32952380D02*
X97407200Y-33095237D01*
X97407200Y-33095237D02*
X97311961Y-33190475D01*
X97311961Y-33190475D02*
X97216723Y-33238094D01*
X97216723Y-33238094D02*
X97026247Y-33285713D01*
X97026247Y-33285713D02*
X96883390Y-33285713D01*
X96883390Y-33285713D02*
X96692914Y-33238094D01*
X96692914Y-33238094D02*
X96597676Y-33190475D01*
X96597676Y-33190475D02*
X96502438Y-33095237D01*
X96502438Y-33095237D02*
X96454819Y-32952380D01*
X96454819Y-32952380D02*
X96454819Y-32857142D01*
X96454819Y-32857142D02*
X96502438Y-32714285D01*
X96502438Y-32714285D02*
X96550057Y-32666666D01*
X96550057Y-32285713D02*
X96502438Y-32238094D01*
X96502438Y-32238094D02*
X96454819Y-32142856D01*
X96454819Y-32142856D02*
X96454819Y-31904761D01*
X96454819Y-31904761D02*
X96502438Y-31809523D01*
X96502438Y-31809523D02*
X96550057Y-31761904D01*
X96550057Y-31761904D02*
X96645295Y-31714285D01*
X96645295Y-31714285D02*
X96740533Y-31714285D01*
X96740533Y-31714285D02*
X96883390Y-31761904D01*
X96883390Y-31761904D02*
X97454819Y-32333332D01*
X97454819Y-32333332D02*
X97454819Y-31714285D01*
X95109580Y-41916666D02*
X95157200Y-41964285D01*
X95157200Y-41964285D02*
X95204819Y-42107142D01*
X95204819Y-42107142D02*
X95204819Y-42202380D01*
X95204819Y-42202380D02*
X95157200Y-42345237D01*
X95157200Y-42345237D02*
X95061961Y-42440475D01*
X95061961Y-42440475D02*
X94966723Y-42488094D01*
X94966723Y-42488094D02*
X94776247Y-42535713D01*
X94776247Y-42535713D02*
X94633390Y-42535713D01*
X94633390Y-42535713D02*
X94442914Y-42488094D01*
X94442914Y-42488094D02*
X94347676Y-42440475D01*
X94347676Y-42440475D02*
X94252438Y-42345237D01*
X94252438Y-42345237D02*
X94204819Y-42202380D01*
X94204819Y-42202380D02*
X94204819Y-42107142D01*
X94204819Y-42107142D02*
X94252438Y-41964285D01*
X94252438Y-41964285D02*
X94300057Y-41916666D01*
X95204819Y-40964285D02*
X95204819Y-41535713D01*
X95204819Y-41249999D02*
X94204819Y-41249999D01*
X94204819Y-41249999D02*
X94347676Y-41345237D01*
X94347676Y-41345237D02*
X94442914Y-41440475D01*
X94442914Y-41440475D02*
X94490533Y-41535713D01*
D12*
G04 #@! TO.C,J4*
X75420000Y-33300000D02*
X75420000Y-51200000D01*
X75420000Y-33300000D02*
X78020000Y-33300000D01*
X75420000Y-51200000D02*
X80620000Y-51200000D01*
X78020000Y-33300000D02*
X78020000Y-35900000D01*
X78020000Y-35900000D02*
X80620000Y-35900000D01*
X79290000Y-33300000D02*
X80620000Y-33300000D01*
X80620000Y-33300000D02*
X80620000Y-34630000D01*
X80620000Y-35900000D02*
X80620000Y-51200000D01*
G04 #@! TO.C,J1*
X86590001Y-64089999D02*
X96870001Y-64090000D01*
X86590001Y-64089999D02*
X86590001Y-55460000D01*
X86710001Y-64090000D02*
X86710001Y-55460000D01*
X86828096Y-64090000D02*
X86828096Y-55459999D01*
X86946191Y-64090000D02*
X86946191Y-55460000D01*
X87064287Y-64090000D02*
X87064286Y-55460000D01*
X87182380Y-64090000D02*
X87182381Y-55460000D01*
X87300476Y-64090000D02*
X87300476Y-55460000D01*
X87418571Y-64090000D02*
X87418571Y-55459999D01*
X87536666Y-64090000D02*
X87536666Y-55460000D01*
X87654761Y-64089999D02*
X87654761Y-55460000D01*
X87772856Y-64090000D02*
X87772856Y-55460000D01*
X87890951Y-64090000D02*
X87890951Y-55459999D01*
X88009046Y-64090000D02*
X88009046Y-55460000D01*
X88127142Y-64090000D02*
X88127141Y-55460000D01*
X88245235Y-64090000D02*
X88245236Y-55460000D01*
X88363331Y-64090000D02*
X88363331Y-55460000D01*
X88481426Y-64090000D02*
X88481426Y-55459999D01*
X88599521Y-64090000D02*
X88599521Y-55460000D01*
X88717616Y-64089999D02*
X88717616Y-55460000D01*
X88835711Y-64090000D02*
X88835711Y-55460000D01*
X88953806Y-64090000D02*
X88953806Y-55459999D01*
X89071901Y-64090000D02*
X89071901Y-55460000D01*
X89190001Y-64090000D02*
X89190002Y-55460000D01*
X91730001Y-64090000D02*
X91730001Y-55460000D01*
X94270001Y-64089999D02*
X94270001Y-55460000D01*
X96870001Y-64090000D02*
X96870001Y-55460000D01*
X86590001Y-55460000D02*
X96870001Y-55460000D01*
X87560001Y-55459999D02*
X87560001Y-55110000D01*
X88280001Y-55459999D02*
X88280001Y-55110000D01*
X90100001Y-55460000D02*
X90100001Y-55050000D01*
X90820001Y-55460000D02*
X90820001Y-55050000D01*
X92640001Y-55460000D02*
X92640001Y-55050000D01*
X93360001Y-55460000D02*
X93360001Y-55050000D01*
X95180001Y-55460000D02*
X95180001Y-55050000D01*
X95900001Y-55460000D02*
X95900001Y-55050000D01*
X86590001Y-54000000D02*
X86590001Y-52889999D01*
X86590001Y-52889999D02*
X87920001Y-52889999D01*
G04 #@! TO.C,U1*
X84355000Y-30780000D02*
X84355000Y-51220000D01*
X84355000Y-51220000D02*
X89655000Y-51220000D01*
X86005000Y-30780000D02*
X84355000Y-30780000D01*
X89655000Y-30780000D02*
X88005000Y-30780000D01*
X89655000Y-51220000D02*
X89655000Y-30780000D01*
X88005000Y-30780000D02*
G75*
G02*
X86005000Y-30780000I-1000000J0D01*
G01*
G04 #@! TO.C,R2*
X100580000Y-50920000D02*
X100580000Y-47080000D01*
X102420000Y-50920000D02*
X102420000Y-47080000D01*
G04 #@! TO.C,R1*
X100170000Y-47080000D02*
X100170000Y-50920000D01*
X98330000Y-47080000D02*
X98330000Y-50920000D01*
G04 #@! TO.C,L1*
X101000000Y-38680000D02*
X101000000Y-38900000D01*
X102220000Y-37460000D02*
G75*
G02*
X99780000Y-37460000I-1220000J0D01*
G01*
X99780000Y-37460000D02*
G75*
G02*
X102220000Y-37460000I1220000J0D01*
G01*
G04 #@! TO.C,C6*
X97870000Y-51370000D02*
X92630000Y-51370000D01*
X97870000Y-48630000D02*
X97870000Y-51370000D01*
X92630000Y-51370000D02*
X92630000Y-48630000D01*
X92630000Y-48630000D02*
X97870000Y-48630000D01*
G04 #@! TO.C,C5*
X75130000Y-29880000D02*
X80370000Y-29880000D01*
X75130000Y-32620000D02*
X75130000Y-29880000D01*
X80370000Y-29880000D02*
X80370000Y-32620000D01*
X80370000Y-32620000D02*
X75130000Y-32620000D01*
G04 #@! TO.C,C4*
X102370000Y-30130000D02*
X102370000Y-35370000D01*
X99630000Y-30130000D02*
X102370000Y-30130000D01*
X102370000Y-35370000D02*
X99630000Y-35370000D01*
X99630000Y-35370000D02*
X99630000Y-30130000D01*
G04 #@! TO.C,C3*
X95370000Y-33630000D02*
X95370000Y-38870000D01*
X92630000Y-33630000D02*
X95370000Y-33630000D01*
X95370000Y-38870000D02*
X92630000Y-38870000D01*
X92630000Y-38870000D02*
X92630000Y-33630000D01*
G04 #@! TO.C,C2*
X95630000Y-38870000D02*
X95630000Y-33630000D01*
X98370000Y-38870000D02*
X95630000Y-38870000D01*
X95630000Y-33630000D02*
X98370000Y-33630000D01*
X98370000Y-33630000D02*
X98370000Y-38870000D01*
G04 #@! TO.C,C1*
X98370000Y-39130000D02*
X98370000Y-44370000D01*
X95630000Y-39130000D02*
X98370000Y-39130000D01*
X98370000Y-44370000D02*
X95630000Y-44370000D01*
X95630000Y-44370000D02*
X95630000Y-39130000D01*
G04 #@! TD*
%LPC*%
D13*
G04 #@! TO.C,J4*
X79290000Y-34630000D03*
D14*
X76750000Y-34630000D03*
X79290000Y-37170000D03*
X76750000Y-37170000D03*
X79290000Y-39710000D03*
X76750000Y-39710000D03*
X79290000Y-42250000D03*
X76750000Y-42250000D03*
X79290000Y-44790000D03*
X76750000Y-44790000D03*
X79290000Y-47330000D03*
X76750000Y-47330000D03*
X79290000Y-49870000D03*
X76750000Y-49870000D03*
G04 #@! TD*
D13*
G04 #@! TO.C,J2*
X104460000Y-31840000D03*
D14*
X107000000Y-31840000D03*
X104460000Y-34380000D03*
X107000000Y-34380000D03*
X104460000Y-36920000D03*
X107000000Y-36920000D03*
X104460000Y-39460000D03*
X107000000Y-39460000D03*
X104460000Y-42000000D03*
X107000000Y-42000000D03*
X104460000Y-44540000D03*
X107000000Y-44540000D03*
X104460000Y-47080000D03*
X107000000Y-47080000D03*
X104460000Y-49620000D03*
X107000000Y-49620000D03*
X104460000Y-52160000D03*
X107000000Y-52160000D03*
X104460000Y-54700000D03*
X107000000Y-54700000D03*
X104460000Y-57240000D03*
X107000000Y-57240000D03*
X104460000Y-59780000D03*
X107000000Y-59780000D03*
G04 #@! TD*
D13*
G04 #@! TO.C,J1*
X87920001Y-54000000D03*
D14*
X90460001Y-54000000D03*
X93000000Y-54000000D03*
X95540001Y-54000000D03*
G04 #@! TD*
D15*
G04 #@! TO.C,U1*
X83195000Y-32110000D03*
D16*
X83195000Y-34650000D03*
X83195000Y-37190000D03*
X83195000Y-39730000D03*
X83195000Y-42270000D03*
X83195000Y-44810000D03*
X83195000Y-47350000D03*
X83195000Y-49890000D03*
X90815000Y-49890000D03*
X90815000Y-47350000D03*
X90815000Y-44810000D03*
X90815000Y-42270000D03*
X90815000Y-39730000D03*
X90815000Y-37190000D03*
X90815000Y-34650000D03*
X90815000Y-32110000D03*
G04 #@! TD*
D17*
G04 #@! TO.C,R2*
X101500000Y-51540000D03*
X101500000Y-46460001D03*
G04 #@! TD*
G04 #@! TO.C,R1*
X99250000Y-46460000D03*
X99250000Y-51539999D03*
G04 #@! TD*
D16*
G04 #@! TO.C,L1*
X101000000Y-37460000D03*
X101000000Y-40000000D03*
G04 #@! TD*
G04 #@! TO.C,C6*
X96500000Y-50000000D03*
X94000000Y-50000000D03*
G04 #@! TD*
G04 #@! TO.C,C5*
X76500000Y-31250000D03*
X79000000Y-31250000D03*
G04 #@! TD*
G04 #@! TO.C,C4*
X101000000Y-31500000D03*
X101000000Y-34000000D03*
G04 #@! TD*
G04 #@! TO.C,C3*
X94000000Y-35000000D03*
X94000000Y-37500000D03*
G04 #@! TD*
G04 #@! TO.C,C2*
X97000000Y-37500000D03*
X97000000Y-35000000D03*
G04 #@! TD*
G04 #@! TO.C,C1*
X97000000Y-40500000D03*
X97000000Y-43000000D03*
G04 #@! TD*
%LPD*%
M02*
