G04 #@! TF.GenerationSoftware,KiCad,Pcbnew,9.0.6*
G04 #@! TF.CreationDate,2025-12-06T20:31:00+01:00*
G04 #@! TF.ProjectId,TeStConfAlkolhol,54655374-436f-46e6-9641-6c6b6f6c686f,rev?*
G04 #@! TF.SameCoordinates,Original*
G04 #@! TF.FileFunction,Soldermask,Top*
G04 #@! TF.FilePolarity,Negative*
%FSLAX46Y46*%
G04 Gerber Fmt 4.6, Leading zero omitted, Abs format (unit mm)*
G04 Created by KiCad (PCBNEW 9.0.6) date 2025-12-06 20:31:00*
%MOMM*%
%LPD*%
G01*
G04 APERTURE LIST*
G04 Aperture macros list*
%AMRoundRect*
0 Rectangle with rounded corners*
0 $1 Rounding radius*
0 $2 $3 $4 $5 $6 $7 $8 $9 X,Y pos of 4 corners*
0 Add a 4 corners polygon primitive as box body*
4,1,4,$2,$3,$4,$5,$6,$7,$8,$9,$2,$3,0*
0 Add four circle primitives for the rounded corners*
1,1,$1+$1,$2,$3*
1,1,$1+$1,$4,$5*
1,1,$1+$1,$6,$7*
1,1,$1+$1,$8,$9*
0 Add four rect primitives between the rounded corners*
20,1,$1+$1,$2,$3,$4,$5,0*
20,1,$1+$1,$4,$5,$6,$7,0*
20,1,$1+$1,$6,$7,$8,$9,0*
20,1,$1+$1,$8,$9,$2,$3,0*%
G04 Aperture macros list end*
%ADD10R,1.700000X1.700000*%
%ADD11C,1.700000*%
%ADD12RoundRect,0.250000X-0.550000X-0.550000X0.550000X-0.550000X0.550000X0.550000X-0.550000X0.550000X0*%
%ADD13C,1.600000*%
%ADD14C,1.400000*%
G04 APERTURE END LIST*
D10*
G04 #@! TO.C,J4*
X79290000Y-34630000D03*
D11*
X76750000Y-34630000D03*
X79290000Y-37170000D03*
X76750000Y-37170000D03*
X79290000Y-39710000D03*
X76750000Y-39710000D03*
X79290000Y-42250000D03*
X76750000Y-42250000D03*
X79290000Y-44790000D03*
X76750000Y-44790000D03*
X79290000Y-47330000D03*
X76750000Y-47330000D03*
X79290000Y-49870000D03*
X76750000Y-49870000D03*
G04 #@! TD*
D10*
G04 #@! TO.C,J2*
X104460000Y-31840000D03*
D11*
X107000000Y-31840000D03*
X104460000Y-34380000D03*
X107000000Y-34380000D03*
X104460000Y-36920000D03*
X107000000Y-36920000D03*
X104460000Y-39460000D03*
X107000000Y-39460000D03*
X104460000Y-42000000D03*
X107000000Y-42000000D03*
X104460000Y-44540000D03*
X107000000Y-44540000D03*
X104460000Y-47080000D03*
X107000000Y-47080000D03*
X104460000Y-49620000D03*
X107000000Y-49620000D03*
X104460000Y-52160000D03*
X107000000Y-52160000D03*
X104460000Y-54700000D03*
X107000000Y-54700000D03*
X104460000Y-57240000D03*
X107000000Y-57240000D03*
X104460000Y-59780000D03*
X107000000Y-59780000D03*
G04 #@! TD*
D10*
G04 #@! TO.C,J1*
X87920001Y-54000000D03*
D11*
X90460001Y-54000000D03*
X93000000Y-54000000D03*
X95540001Y-54000000D03*
G04 #@! TD*
D12*
G04 #@! TO.C,U1*
X83195000Y-32110000D03*
D13*
X83195000Y-34650000D03*
X83195000Y-37190000D03*
X83195000Y-39730000D03*
X83195000Y-42270000D03*
X83195000Y-44810000D03*
X83195000Y-47350000D03*
X83195000Y-49890000D03*
X90815000Y-49890000D03*
X90815000Y-47350000D03*
X90815000Y-44810000D03*
X90815000Y-42270000D03*
X90815000Y-39730000D03*
X90815000Y-37190000D03*
X90815000Y-34650000D03*
X90815000Y-32110000D03*
G04 #@! TD*
D14*
G04 #@! TO.C,R2*
X101500000Y-51540000D03*
X101500000Y-46460001D03*
G04 #@! TD*
G04 #@! TO.C,R1*
X99250000Y-46460000D03*
X99250000Y-51539999D03*
G04 #@! TD*
D13*
G04 #@! TO.C,L1*
X101000000Y-37460000D03*
X101000000Y-40000000D03*
G04 #@! TD*
G04 #@! TO.C,C6*
X96500000Y-50000000D03*
X94000000Y-50000000D03*
G04 #@! TD*
G04 #@! TO.C,C5*
X76500000Y-31250000D03*
X79000000Y-31250000D03*
G04 #@! TD*
G04 #@! TO.C,C4*
X101000000Y-31500000D03*
X101000000Y-34000000D03*
G04 #@! TD*
G04 #@! TO.C,C3*
X94000000Y-35000000D03*
X94000000Y-37500000D03*
G04 #@! TD*
G04 #@! TO.C,C2*
X97000000Y-37500000D03*
X97000000Y-35000000D03*
G04 #@! TD*
G04 #@! TO.C,C1*
X97000000Y-40500000D03*
X97000000Y-43000000D03*
G04 #@! TD*
M02*
